<svg height="1024" width="1024" xmlns="http://www.w3.org/2000/svg"><title/><path fill="none" d="M-1-1h1026v1026H-1z"/><g><title/><path d="M482 80.1c-103.6 7.7-198.1 50.3-272.3 122.8-97.6 95.2-144.4 230-127.1 365.4 21.6 169.3 141 310.3 305 360.2 126.8 38.6 267.9 15.7 375.4-60.8 132.1-94.1 200.8-250.2 180.4-410-21.6-169.3-141-310.3-305-360.2C589.6 82.6 532.7 76.3 482 80.1zM515.1 349c22.2 2.2 33.3 5.7 38.3 12.2 1.3 1.8 3.4 6.2 4.6 9.8 2.6 7.6 2.7 16.3 1.1 81.3-1 40.6-.4 53.1 2.9 62.1 3.9 10.3 12.5 15 20.1 11.1 6.9-3.6 23-21.3 33.5-37 24.3-36 39.1-63.9 56.9-107 3.6-8.5 8.4-14.1 13.4-15.4 2-.6 30.3-1.1 65.1-1.2l61.5-.2 5.2 2.2c6.7 3 9.3 6.9 9.3 14 0 13.5-14.1 41.2-38.3 75.1-3.3 4.7-15.8 21.3-27.7 37-26.3 34.6-32 42.7-36 51.1-5 10.6-3.8 19.3 4.1 29.6 2.3 2.9 13.9 14.6 25.8 26 33.3 31.9 48.4 48.7 60.7 67.1 8.8 13.3 12.2 23.1 10.8 31.5-.7 4.6-5.3 10.1-10.5 12.8-6.2 3.1-15.7 3.7-68 4.4l-49.5.7-8-2.7c-20.4-6.8-34-18.1-64.9-53.9-17.1-19.8-29.8-29.5-38.6-29.6-8.1 0-18.4 10.8-22.8 24.2-3 9-4.1 15.9-5 31.5-1.1 18.4-3.3 22.7-14.6 27.4-4.1 1.8-55.1 2.4-68.6 1-27.1-3-52.2-11.5-77.1-26.2-36.1-21.2-58.2-40.2-81.9-70.4-41.2-52.6-69.3-97.4-103.4-165-13.2-26.3-28.7-60.3-31.2-68.4-2.5-8.4 1.1-15.3 9.3-17.9 2.8-.9 18.4-1.4 54.4-1.9l50.5-.5 5.9 2.2c9.3 3.6 13.2 8.2 19.5 23.5 5.4 12.9 34.5 71.3 43.6 87.6 9.3 16.5 19.2 30.3 27.7 38.5 10.5 10.3 15.2 12.8 22.6 12.2 6.3-.6 8-2 11.9-10.5 9.5-20.5 11-89.8 2.5-117-4.9-15.5-12.2-21.4-32.4-25.7-3.5-.8-3.5-2-.3-6.7 7.8-11.2 21.7-16.6 48.2-18.8 14.5-1.2 57.5-1.3 69.4-.1z" fill="#45668e"/></g></svg>