<?xml version="1.0" encoding="iso-8859-1"?>
<!-- Generator: Adobe Illustrator 19.2.0, SVG Export Plug-In . SVG Version: 6.00 Build 0)  -->
<svg version="1.1" id="&#x421;&#x43B;&#x43E;&#x439;_1"
	 xmlns="http://www.w3.org/2000/svg" xmlns:xlink="http://www.w3.org/1999/xlink" x="0px" y="0px" viewBox="0 0 566.93 566.93"
	 style="enable-background:new 0 0 566.93 566.93;" xml:space="preserve">
<path style="fill:#08939A;" d="M279.261,86.865l-40.013,68.587c-10.232-7.287-22.568-11.541-35.857-11.541
	c-35.309,0-63.939,30.067-63.939,67.16c0,25.319,13.355,47.372,33.074,58.803l-38.144,65.39
	c-39.725-25.621-66.226-71.661-66.226-124.193c0-80.43,62.084-145.628,138.66-145.628C233.368,65.444,258.183,73.279,279.261,86.865
	z"/>
<path style="fill:#FFFFFF;" d="M258.584,38.467l-47.809,81.951c-12.225-8.707-26.965-13.79-42.844-13.79
	c-42.188,0-76.397,35.925-76.397,80.246c0,30.252,15.957,56.602,39.518,70.26l-45.576,78.13
	c-47.465-30.613-79.13-85.624-79.13-148.39c0-96.101,74.18-174.002,165.676-174.002C203.749,12.872,233.399,22.234,258.584,38.467z"
	/>
<polyline style="fill:#084D4F;" points="210.775,120.418 239.248,155.452 279.261,86.865 258.584,38.467 "/>
<polygon style="fill:#084D4F;" points="131.052,257.134 172.526,269.874 134.381,335.264 85.476,335.264 "/>
<path style="fill:#08939A;" d="M281.286,86.865l40.949,68.587c10.471-7.287,23.095-11.541,36.696-11.541
	c36.134,0,65.435,30.067,65.435,67.16c0,25.319-13.667,47.372-33.847,58.803l39.036,65.39
	c40.654-25.621,67.775-71.661,67.775-124.193c0-80.43-63.536-145.628-141.902-145.628C328.253,65.444,302.857,73.279,281.286,86.865
	z"/>
<path style="fill:#FFFFFF;" d="M302.447,38.467l48.927,81.951c12.511-8.707,27.595-13.79,43.846-13.79
	c43.175,0,78.184,35.925,78.184,80.246c0,30.252-16.33,56.602-40.442,70.26l46.642,78.13c48.576-30.613,80.98-85.624,80.98-148.39
	c0-96.101-75.915-174.002-169.551-174.002C358.564,12.872,328.221,22.234,302.447,38.467z"/>
<polyline style="fill:#084D4F;" points="351.374,120.418 322.235,155.452 281.286,86.865 302.447,38.467 "/>
<polygon style="fill:#084D4F;" points="432.961,257.134 390.518,269.874 429.554,335.264 479.603,335.264 "/>
<path style="fill:#08939A;" d="M134.897,335.384l80.958-0.18c-0.6,13.042,2.564,26.376,9.905,38.326
	c19.505,31.748,61.122,41.641,92.951,22.086c21.726-13.348,33.271-36.982,32.187-60.739l77.182-0.175
	c-0.04,49.226-24.907,97.327-69.983,125.021c-69.016,42.402-159.258,20.949-201.56-47.905
	C141.868,387.943,134.883,361.499,134.897,335.384z"/>
<path style="fill:#FFFFFF;" d="M104.789,379.491l96.732-0.215c-0.717,15.583,3.063,31.515,11.835,45.793
	c23.306,37.934,73.031,49.755,111.061,26.39c25.959-15.948,39.754-44.188,38.459-72.573l92.22-0.209
	c-0.047,58.818-29.76,116.29-83.619,149.38c-82.463,50.663-190.288,25.031-240.832-57.239
	C113.118,442.29,104.773,410.694,104.789,379.491z"/>
<polyline style="fill:#084D4F;" points="201.521,379.276 215.855,335.204 134.897,335.384 104.789,379.491 "/>
<polygon style="fill:#084D4F;" points="362.876,378.885 350.898,334.877 428.08,334.702 455.096,378.676 "/>
</svg>
