# Blender v2.79 (sub 0) OBJ File: 'aim.blend'
# www.blender.org
mtllib aim.mtl
o Cube.003_Cube.005
v -2.041410 1.767600 0.069449
v -1.456595 2.289649 0.069449
v -2.041410 1.767600 0.047541
v -1.456595 2.289649 0.047541
v -1.456595 1.245551 0.069449
v -1.456595 1.245551 0.047541
v -1.904606 1.767600 0.069449
v -1.508948 2.163258 0.069449
v -1.904606 1.767600 0.047541
v -1.508948 2.163258 0.047541
v -1.508948 1.371942 0.069449
v -1.508948 1.371942 0.047541
v 2.009929 1.767600 0.069449
v 1.425114 1.245551 0.069449
v 2.009929 1.767600 0.047541
v 1.425114 1.245551 0.047541
v 1.425114 2.289650 0.069449
v 1.425114 2.289650 0.047541
v 1.873125 1.767600 0.069449
v 1.477467 1.371943 0.069449
v 1.873125 1.767600 0.047541
v 1.477467 1.371943 0.047541
v 1.477468 2.163259 0.069449
v 1.477468 2.163259 0.047541
v -0.010396 1.901742 0.036600
v -0.010396 1.901742 0.077326
v 0.016027 1.899140 0.036600
v 0.016027 1.899140 0.077326
v 0.041435 1.891433 0.036600
v 0.041435 1.891433 0.077326
v 0.064851 1.878916 0.036600
v 0.064851 1.878916 0.077326
v 0.085376 1.862072 0.036600
v 0.085376 1.862072 0.077326
v 0.102220 1.841548 0.036600
v 0.102220 1.841548 0.077326
v 0.114736 1.818132 0.036600
v 0.114736 1.818132 0.077326
v 0.122443 1.792724 0.036600
v 0.122443 1.792724 0.077326
v 0.125046 1.766301 0.036600
v 0.125046 1.766301 0.077326
v 0.122443 1.739878 0.036600
v 0.122443 1.739878 0.077326
v 0.114736 1.714470 0.036600
v 0.114736 1.714470 0.077326
v 0.102220 1.691054 0.036600
v 0.102220 1.691054 0.077326
v 0.085376 1.670529 0.036600
v 0.085376 1.670529 0.077326
v 0.064851 1.653685 0.036600
v 0.064851 1.653685 0.077326
v 0.041435 1.641169 0.036600
v 0.041435 1.641169 0.077326
v 0.016027 1.633462 0.036600
v 0.016027 1.633462 0.077326
v -0.010396 1.630859 0.036600
v -0.010396 1.630859 0.077326
v -0.036819 1.633462 0.036600
v -0.036819 1.633462 0.077326
v -0.062227 1.641169 0.036600
v -0.062227 1.641169 0.077326
v -0.085643 1.653685 0.036600
v -0.085643 1.653685 0.077326
v -0.106168 1.670529 0.036600
v -0.106168 1.670529 0.077326
v -0.123011 1.691054 0.036600
v -0.123011 1.691054 0.077326
v -0.135528 1.714470 0.036600
v -0.135528 1.714470 0.077326
v -0.143235 1.739878 0.036600
v -0.143235 1.739878 0.077326
v -0.145837 1.766301 0.036600
v -0.145837 1.766301 0.077326
v -0.143235 1.792724 0.036600
v -0.143235 1.792724 0.077326
v -0.135527 1.818132 0.036600
v -0.135527 1.818132 0.077326
v -0.123011 1.841548 0.036600
v -0.123011 1.841548 0.077326
v -0.106167 1.862072 0.036600
v -0.106167 1.862072 0.077326
v -0.085643 1.878917 0.036600
v -0.085643 1.878917 0.077326
v -0.062227 1.891433 0.036600
v -0.062227 1.891433 0.077326
v -0.036819 1.899140 0.036600
v -0.036819 1.899140 0.077326
v -0.010396 1.878040 0.036600
v -0.010396 1.878040 0.077326
v 0.011404 1.875893 0.036600
v 0.011404 1.875893 0.077326
v 0.032365 1.869535 0.036600
v 0.032365 1.869535 0.077326
v 0.051683 1.859209 0.036600
v 0.051683 1.859209 0.077326
v 0.068616 1.845313 0.036600
v 0.068616 1.845313 0.077326
v 0.082512 1.828380 0.036600
v 0.082512 1.828380 0.077326
v 0.092838 1.809062 0.036600
v 0.092838 1.809062 0.077326
v 0.099197 1.788100 0.036600
v 0.099197 1.788100 0.077326
v 0.101343 1.766301 0.036600
v 0.101343 1.766301 0.077326
v 0.099197 1.744501 0.036600
v 0.099197 1.744501 0.077326
v 0.092838 1.723540 0.036600
v 0.092838 1.723540 0.077326
v 0.082512 1.704222 0.036600
v 0.082512 1.704222 0.077326
v 0.068616 1.687289 0.036600
v 0.068616 1.687289 0.077326
v 0.051683 1.673393 0.036600
v 0.051683 1.673393 0.077326
v 0.032365 1.663067 0.036600
v 0.032365 1.663067 0.077326
v 0.011404 1.656708 0.036600
v 0.011404 1.656708 0.077326
v -0.010396 1.654561 0.036600
v -0.010396 1.654561 0.077326
v -0.032196 1.656708 0.036600
v -0.032196 1.656708 0.077326
v -0.053157 1.663067 0.036600
v -0.053157 1.663067 0.077326
v -0.072475 1.673393 0.036600
v -0.072475 1.673393 0.077326
v -0.089408 1.687289 0.036600
v -0.089408 1.687289 0.077326
v -0.103304 1.704222 0.036600
v -0.103304 1.704222 0.077326
v -0.113630 1.723540 0.036600
v -0.113630 1.723540 0.077326
v -0.119988 1.744501 0.036600
v -0.119988 1.744501 0.077326
v -0.122136 1.766301 0.036600
v -0.122136 1.766301 0.077326
v -0.119988 1.788101 0.036600
v -0.119988 1.788101 0.077326
v -0.113630 1.809062 0.036600
v -0.113630 1.809062 0.077326
v -0.103304 1.828380 0.036600
v -0.103304 1.828380 0.077326
v -0.089408 1.845313 0.036600
v -0.089408 1.845313 0.077326
v -0.072475 1.859209 0.036600
v -0.072475 1.859209 0.077326
v -0.053157 1.869535 0.036600
v -0.053157 1.869535 0.077326
v -0.032195 1.875893 0.036600
v -0.032195 1.875893 0.077326
v -0.010396 2.358168 -0.032022
v -0.010396 2.358168 0.145947
v 0.105072 2.346795 -0.032022
v 0.105072 2.346795 0.145947
v 0.216102 2.313114 -0.032022
v 0.216102 2.313114 0.145947
v 0.318428 2.258420 -0.032022
v 0.318428 2.258420 0.145947
v 0.408117 2.184814 -0.032022
v 0.408117 2.184814 0.145947
v 0.481723 2.095124 -0.032022
v 0.481723 2.095124 0.145947
v 0.536417 1.992798 -0.032022
v 0.536417 1.992798 0.145947
v 0.570098 1.881768 -0.032022
v 0.570098 1.881768 0.145947
v 0.581471 1.766301 -0.032022
v 0.581471 1.766301 0.145947
v 0.570098 1.650833 -0.032022
v 0.570098 1.650833 0.145947
v 0.536418 1.539803 -0.032022
v 0.536418 1.539803 0.145947
v 0.481723 1.437477 -0.032022
v 0.481723 1.437477 0.145947
v 0.408117 1.347788 -0.032022
v 0.408117 1.347788 0.145947
v 0.318428 1.274181 -0.032022
v 0.318428 1.274181 0.145947
v 0.216102 1.219487 -0.032022
v 0.216102 1.219487 0.145947
v 0.105071 1.185807 -0.032022
v 0.105071 1.185807 0.145947
v -0.010396 1.174434 -0.032022
v -0.010396 1.174434 0.145947
v -0.125864 1.185807 -0.032022
v -0.125864 1.185807 0.145947
v -0.236894 1.219487 -0.032022
v -0.236894 1.219487 0.145947
v -0.339220 1.274182 -0.032022
v -0.339220 1.274182 0.145947
v -0.428909 1.347788 -0.032022
v -0.428909 1.347788 0.145947
v -0.502515 1.437478 -0.032022
v -0.502515 1.437478 0.145947
v -0.557210 1.539804 -0.032022
v -0.557210 1.539804 0.145947
v -0.590890 1.650834 -0.032022
v -0.590890 1.650834 0.145947
v -0.602263 1.766301 -0.032022
v -0.602263 1.766301 0.145947
v -0.590890 1.881769 -0.032022
v -0.590890 1.881769 0.145947
v -0.557209 1.992799 -0.032022
v -0.557209 1.992799 0.145947
v -0.502515 2.095125 -0.032022
v -0.502515 2.095125 0.145947
v -0.428908 2.184814 -0.032022
v -0.428908 2.184814 0.145947
v -0.339219 2.258420 -0.032022
v -0.339219 2.258420 0.145947
v -0.236893 2.313115 -0.032022
v -0.236893 2.313115 0.145947
v -0.125863 2.346795 -0.032022
v -0.125863 2.346795 0.145947
v -0.010396 2.254591 -0.032022
v -0.010396 2.254591 0.145947
v 0.084866 2.245210 -0.032022
v 0.084866 2.245210 0.145947
v 0.176466 2.217424 -0.032022
v 0.176466 2.217424 0.145947
v 0.260885 2.172302 -0.032022
v 0.260885 2.172302 0.145947
v 0.334880 2.111577 -0.032022
v 0.334880 2.111577 0.145947
v 0.395605 2.037581 -0.032022
v 0.395605 2.037581 0.145947
v 0.440728 1.953163 -0.032022
v 0.440728 1.953163 0.145947
v 0.468513 1.861563 -0.032022
v 0.468513 1.861563 0.145947
v 0.477894 1.766301 -0.032022
v 0.477894 1.766301 0.145947
v 0.468513 1.671039 -0.032022
v 0.468513 1.671039 0.145947
v 0.440728 1.579439 -0.032022
v 0.440728 1.579439 0.145947
v 0.395605 1.495020 -0.032022
v 0.395605 1.495020 0.145947
v 0.334880 1.421025 -0.032022
v 0.334880 1.421025 0.145947
v 0.260885 1.360300 -0.032022
v 0.260885 1.360300 0.145947
v 0.176466 1.315177 -0.032022
v 0.176466 1.315177 0.145947
v 0.084866 1.287392 -0.032022
v 0.084866 1.287392 0.145947
v -0.010396 1.278008 -0.032022
v -0.010396 1.278008 0.145947
v -0.105659 1.287392 -0.032022
v -0.105659 1.287392 0.145947
v -0.197258 1.315177 -0.032022
v -0.197258 1.315177 0.145947
v -0.281677 1.360300 -0.032022
v -0.281677 1.360300 0.145947
v -0.355672 1.421025 -0.032022
v -0.355672 1.421025 0.145947
v -0.416397 1.495021 -0.032022
v -0.416397 1.495021 0.145947
v -0.461520 1.579440 -0.032022
v -0.461520 1.579440 0.145947
v -0.489305 1.671039 -0.032022
v -0.489305 1.671039 0.145947
v -0.498689 1.766301 -0.032022
v -0.498689 1.766301 0.145947
v -0.489305 1.861564 -0.032022
v -0.489305 1.861564 0.145947
v -0.461519 1.953163 -0.032022
v -0.461519 1.953163 0.145947
v -0.416396 2.037582 -0.032022
v -0.416396 2.037582 0.145947
v -0.355671 2.111577 -0.032022
v -0.355671 2.111577 0.145947
v -0.281676 2.172302 -0.032022
v -0.281676 2.172302 0.145947
v -0.197257 2.217425 -0.032022
v -0.197257 2.217425 0.145947
v -0.105657 2.245210 -0.032022
v -0.105657 2.245210 0.145947
v -0.009014 3.191488 0.118495
v -0.009014 0.363061 0.118495
v -1.216121 2.484381 0.118495
v -0.009014 3.191488 0.000000
v -0.009014 0.363061 -0.000000
v 1.198092 1.070168 0.118495
v -1.216121 1.070168 0.118495
v 1.198092 2.484381 0.118495
v 1.198092 2.484381 0.000000
v -1.216121 1.070168 0.000000
v 1.198092 1.070168 -0.000000
v -1.216121 2.484381 0.000000
v -0.009014 3.032488 0.118495
v -0.009014 0.522061 0.118495
v -1.078176 2.405320 0.118495
v -0.009014 3.032488 0.000000
v -0.009014 0.522061 -0.000000
v 1.060147 1.149228 0.118495
v -1.078176 1.149228 0.118495
v 1.060147 2.405320 0.118495
v 1.060147 2.405320 0.000000
v -1.078176 1.149228 0.000000
v 1.060147 1.149228 -0.000000
v -1.078176 2.405320 0.000000
vn -0.6659 0.7460 0.0000
vn -0.6659 -0.7460 0.0000
vn 1.0000 0.0000 0.0000
vn 0.7071 -0.7071 0.0000
vn 0.7071 0.7071 0.0000
vn -1.0000 0.0000 0.0000
vn -0.0000 0.0000 1.0000
vn 0.0000 0.0000 -1.0000
vn 0.6659 -0.7460 0.0000
vn 0.6659 0.7460 0.0000
vn -0.7071 0.7071 0.0000
vn -0.7071 -0.7071 0.0000
vn 0.0980 0.9952 0.0000
vn 0.2903 0.9569 0.0000
vn 0.4714 0.8819 0.0000
vn 0.6344 0.7730 0.0000
vn 0.7730 0.6344 0.0000
vn 0.8819 0.4714 0.0000
vn 0.9569 0.2903 0.0000
vn 0.9952 0.0980 0.0000
vn 0.9952 -0.0980 0.0000
vn 0.9569 -0.2903 0.0000
vn 0.8819 -0.4714 0.0000
vn 0.7730 -0.6344 0.0000
vn 0.6344 -0.7730 0.0000
vn 0.4714 -0.8819 0.0000
vn 0.2903 -0.9569 0.0000
vn 0.0980 -0.9952 0.0000
vn -0.0980 -0.9952 0.0000
vn -0.2903 -0.9569 0.0000
vn -0.4714 -0.8819 0.0000
vn -0.6344 -0.7730 0.0000
vn -0.7730 -0.6344 0.0000
vn -0.8819 -0.4714 0.0000
vn -0.9569 -0.2903 0.0000
vn -0.9952 -0.0980 0.0000
vn -0.9952 0.0980 0.0000
vn -0.9569 0.2903 0.0000
vn -0.8819 0.4714 0.0000
vn -0.7730 0.6344 0.0000
vn -0.6344 0.7730 0.0000
vn -0.4714 0.8819 0.0000
vn -0.2903 0.9569 0.0000
vn -0.0980 0.9952 0.0000
vn -0.5054 -0.8629 0.0000
vn 0.5054 0.8629 -0.0000
vn 0.5054 -0.8629 -0.0000
vn -0.5054 0.8629 0.0000
vn 0.5060 0.8626 0.0000
vn -0.5060 -0.8626 0.0000
vn -0.5060 0.8626 0.0000
vn 0.5060 -0.8626 -0.0000
usemtl None
s off
f 1//1 2//1 4//1 3//1
f 3//2 6//2 5//2 1//2
f 4//3 2//3 5//3 6//3
f 7//4 9//4 10//4 8//4
f 9//5 7//5 11//5 12//5
f 10//6 12//6 11//6 8//6
f 2//7 1//7 7//7 8//7
f 3//8 4//8 10//8 9//8
f 6//8 3//8 9//8 12//8
f 4//8 6//8 12//8 10//8
f 1//7 5//7 11//7 7//7
f 5//7 2//7 8//7 11//7
f 13//9 14//9 16//9 15//9
f 15//10 18//10 17//10 13//10
f 16//6 14//6 17//6 18//6
f 19//11 21//11 22//11 20//11
f 21//12 19//12 23//12 24//12
f 22//3 24//3 23//3 20//3
f 14//7 13//7 19//7 20//7
f 15//8 16//8 22//8 21//8
f 18//8 15//8 21//8 24//8
f 16//8 18//8 24//8 22//8
f 13//7 17//7 23//7 19//7
f 17//7 14//7 20//7 23//7
f 25//13 26//13 28//13 27//13
f 27//14 28//14 30//14 29//14
f 29//15 30//15 32//15 31//15
f 31//16 32//16 34//16 33//16
f 33//17 34//17 36//17 35//17
f 35//18 36//18 38//18 37//18
f 37//19 38//19 40//19 39//19
f 39//20 40//20 42//20 41//20
f 41//21 42//21 44//21 43//21
f 43//22 44//22 46//22 45//22
f 45//23 46//23 48//23 47//23
f 47//24 48//24 50//24 49//24
f 49//25 50//25 52//25 51//25
f 51//26 52//26 54//26 53//26
f 53//27 54//27 56//27 55//27
f 55//28 56//28 58//28 57//28
f 57//29 58//29 60//29 59//29
f 59//30 60//30 62//30 61//30
f 61//31 62//31 64//31 63//31
f 63//32 64//32 66//32 65//32
f 65//33 66//33 68//33 67//33
f 67//34 68//34 70//34 69//34
f 69//35 70//35 72//35 71//35
f 71//36 72//36 74//36 73//36
f 73//37 74//37 76//37 75//37
f 75//38 76//38 78//38 77//38
f 77//39 78//39 80//39 79//39
f 79//40 80//40 82//40 81//40
f 81//41 82//41 84//41 83//41
f 83//42 84//42 86//42 85//42
f 85//43 86//43 88//43 87//43
f 87//44 88//44 26//44 25//44
f 89//29 91//29 92//29 90//29
f 91//30 93//30 94//30 92//30
f 93//31 95//31 96//31 94//31
f 95//32 97//32 98//32 96//32
f 97//33 99//33 100//33 98//33
f 99//34 101//34 102//34 100//34
f 101//35 103//35 104//35 102//35
f 103//36 105//36 106//36 104//36
f 105//37 107//37 108//37 106//37
f 107//38 109//38 110//38 108//38
f 109//39 111//39 112//39 110//39
f 111//40 113//40 114//40 112//40
f 113//41 115//41 116//41 114//41
f 115//42 117//42 118//42 116//42
f 117//43 119//43 120//43 118//43
f 119//44 121//44 122//44 120//44
f 121//13 123//13 124//13 122//13
f 123//14 125//14 126//14 124//14
f 125//15 127//15 128//15 126//15
f 127//16 129//16 130//16 128//16
f 129//17 131//17 132//17 130//17
f 131//18 133//18 134//18 132//18
f 133//19 135//19 136//19 134//19
f 135//20 137//20 138//20 136//20
f 137//21 139//21 140//21 138//21
f 139//22 141//22 142//22 140//22
f 141//23 143//23 144//23 142//23
f 143//24 145//24 146//24 144//24
f 145//25 147//25 148//25 146//25
f 147//26 149//26 150//26 148//26
f 149//27 151//27 152//27 150//27
f 151//28 89//28 90//28 152//28
f 25//8 27//8 91//8 89//8
f 28//7 26//7 90//7 92//7
f 27//8 29//8 93//8 91//8
f 30//7 28//7 92//7 94//7
f 29//8 31//8 95//8 93//8
f 32//7 30//7 94//7 96//7
f 31//8 33//8 97//8 95//8
f 34//7 32//7 96//7 98//7
f 33//8 35//8 99//8 97//8
f 36//7 34//7 98//7 100//7
f 35//8 37//8 101//8 99//8
f 38//7 36//7 100//7 102//7
f 37//8 39//8 103//8 101//8
f 40//7 38//7 102//7 104//7
f 39//8 41//8 105//8 103//8
f 42//7 40//7 104//7 106//7
f 41//8 43//8 107//8 105//8
f 44//7 42//7 106//7 108//7
f 43//8 45//8 109//8 107//8
f 46//7 44//7 108//7 110//7
f 45//8 47//8 111//8 109//8
f 48//7 46//7 110//7 112//7
f 47//8 49//8 113//8 111//8
f 50//7 48//7 112//7 114//7
f 49//8 51//8 115//8 113//8
f 52//7 50//7 114//7 116//7
f 51//8 53//8 117//8 115//8
f 54//7 52//7 116//7 118//7
f 53//8 55//8 119//8 117//8
f 56//7 54//7 118//7 120//7
f 55//8 57//8 121//8 119//8
f 58//7 56//7 120//7 122//7
f 57//8 59//8 123//8 121//8
f 60//7 58//7 122//7 124//7
f 59//8 61//8 125//8 123//8
f 62//7 60//7 124//7 126//7
f 61//8 63//8 127//8 125//8
f 64//7 62//7 126//7 128//7
f 63//8 65//8 129//8 127//8
f 66//7 64//7 128//7 130//7
f 65//8 67//8 131//8 129//8
f 68//7 66//7 130//7 132//7
f 67//8 69//8 133//8 131//8
f 70//7 68//7 132//7 134//7
f 69//8 71//8 135//8 133//8
f 72//7 70//7 134//7 136//7
f 71//8 73//8 137//8 135//8
f 74//7 72//7 136//7 138//7
f 73//8 75//8 139//8 137//8
f 76//7 74//7 138//7 140//7
f 75//8 77//8 141//8 139//8
f 78//7 76//7 140//7 142//7
f 77//8 79//8 143//8 141//8
f 80//7 78//7 142//7 144//7
f 79//8 81//8 145//8 143//8
f 82//7 80//7 144//7 146//7
f 81//8 83//8 147//8 145//8
f 84//7 82//7 146//7 148//7
f 83//8 85//8 149//8 147//8
f 86//7 84//7 148//7 150//7
f 85//8 87//8 151//8 149//8
f 88//7 86//7 150//7 152//7
f 87//8 25//8 89//8 151//8
f 26//7 88//7 152//7 90//7
f 153//13 154//13 156//13 155//13
f 155//14 156//14 158//14 157//14
f 157//15 158//15 160//15 159//15
f 159//16 160//16 162//16 161//16
f 161//17 162//17 164//17 163//17
f 163//18 164//18 166//18 165//18
f 165//19 166//19 168//19 167//19
f 167//20 168//20 170//20 169//20
f 169//21 170//21 172//21 171//21
f 171//22 172//22 174//22 173//22
f 173//23 174//23 176//23 175//23
f 175//24 176//24 178//24 177//24
f 177//25 178//25 180//25 179//25
f 179//26 180//26 182//26 181//26
f 181//27 182//27 184//27 183//27
f 183//28 184//28 186//28 185//28
f 185//29 186//29 188//29 187//29
f 187//30 188//30 190//30 189//30
f 189//31 190//31 192//31 191//31
f 191//32 192//32 194//32 193//32
f 193//33 194//33 196//33 195//33
f 195//34 196//34 198//34 197//34
f 197//35 198//35 200//35 199//35
f 199//36 200//36 202//36 201//36
f 201//37 202//37 204//37 203//37
f 203//38 204//38 206//38 205//38
f 205//39 206//39 208//39 207//39
f 207//40 208//40 210//40 209//40
f 209//41 210//41 212//41 211//41
f 211//42 212//42 214//42 213//42
f 213//43 214//43 216//43 215//43
f 215//44 216//44 154//44 153//44
f 217//29 219//29 220//29 218//29
f 219//30 221//30 222//30 220//30
f 221//31 223//31 224//31 222//31
f 223//32 225//32 226//32 224//32
f 225//33 227//33 228//33 226//33
f 227//34 229//34 230//34 228//34
f 229//35 231//35 232//35 230//35
f 231//36 233//36 234//36 232//36
f 233//37 235//37 236//37 234//37
f 235//38 237//38 238//38 236//38
f 237//39 239//39 240//39 238//39
f 239//40 241//40 242//40 240//40
f 241//41 243//41 244//41 242//41
f 243//42 245//42 246//42 244//42
f 245//43 247//43 248//43 246//43
f 247//44 249//44 250//44 248//44
f 249//13 251//13 252//13 250//13
f 251//14 253//14 254//14 252//14
f 253//15 255//15 256//15 254//15
f 255//16 257//16 258//16 256//16
f 257//17 259//17 260//17 258//17
f 259//18 261//18 262//18 260//18
f 261//19 263//19 264//19 262//19
f 263//20 265//20 266//20 264//20
f 265//21 267//21 268//21 266//21
f 267//22 269//22 270//22 268//22
f 269//23 271//23 272//23 270//23
f 271//24 273//24 274//24 272//24
f 273//25 275//25 276//25 274//25
f 275//26 277//26 278//26 276//26
f 277//27 279//27 280//27 278//27
f 279//28 217//28 218//28 280//28
f 153//8 155//8 219//8 217//8
f 156//7 154//7 218//7 220//7
f 155//8 157//8 221//8 219//8
f 158//7 156//7 220//7 222//7
f 157//8 159//8 223//8 221//8
f 160//7 158//7 222//7 224//7
f 159//8 161//8 225//8 223//8
f 162//7 160//7 224//7 226//7
f 161//8 163//8 227//8 225//8
f 164//7 162//7 226//7 228//7
f 163//8 165//8 229//8 227//8
f 166//7 164//7 228//7 230//7
f 165//8 167//8 231//8 229//8
f 168//7 166//7 230//7 232//7
f 167//8 169//8 233//8 231//8
f 170//7 168//7 232//7 234//7
f 169//8 171//8 235//8 233//8
f 172//7 170//7 234//7 236//7
f 171//8 173//8 237//8 235//8
f 174//7 172//7 236//7 238//7
f 173//8 175//8 239//8 237//8
f 176//7 174//7 238//7 240//7
f 175//8 177//8 241//8 239//8
f 178//7 176//7 240//7 242//7
f 177//8 179//8 243//8 241//8
f 180//7 178//7 242//7 244//7
f 179//8 181//8 245//8 243//8
f 182//7 180//7 244//7 246//7
f 181//8 183//8 247//8 245//8
f 184//7 182//7 246//7 248//7
f 183//8 185//8 249//8 247//8
f 186//7 184//7 248//7 250//7
f 185//8 187//8 251//8 249//8
f 188//7 186//7 250//7 252//7
f 187//8 189//8 253//8 251//8
f 190//7 188//7 252//7 254//7
f 189//8 191//8 255//8 253//8
f 192//7 190//7 254//7 256//7
f 191//8 193//8 257//8 255//8
f 194//7 192//7 256//7 258//7
f 193//8 195//8 259//8 257//8
f 196//7 194//7 258//7 260//7
f 195//8 197//8 261//8 259//8
f 198//7 196//7 260//7 262//7
f 197//8 199//8 263//8 261//8
f 200//7 198//7 262//7 264//7
f 199//8 201//8 265//8 263//8
f 202//7 200//7 264//7 266//7
f 201//8 203//8 267//8 265//8
f 204//7 202//7 266//7 268//7
f 203//8 205//8 269//8 267//8
f 206//7 204//7 268//7 270//7
f 205//8 207//8 271//8 269//8
f 208//7 206//7 270//7 272//7
f 207//8 209//8 273//8 271//8
f 210//7 208//7 272//7 274//7
f 209//8 211//8 275//8 273//8
f 212//7 210//7 274//7 276//7
f 211//8 213//8 277//8 275//8
f 214//7 212//7 276//7 278//7
f 213//8 215//8 279//8 277//8
f 216//7 214//7 278//7 280//7
f 215//8 153//8 217//8 279//8
f 154//7 216//7 280//7 218//7
f 290//45 285//45 282//45 287//45
f 289//46 284//46 281//46 288//46
f 283//6 292//6 290//6 287//6
f 285//47 291//47 286//47 282//47
f 283//48 281//48 284//48 292//48
f 289//3 288//3 286//3 291//3
f 302//49 299//49 294//49 297//49
f 301//50 300//50 293//50 296//50
f 295//3 299//3 302//3 304//3
f 297//51 294//51 298//51 303//51
f 295//52 304//52 296//52 293//52
f 301//6 303//6 298//6 300//6
f 281//7 283//7 295//7 293//7
f 282//7 286//7 298//7 294//7
f 287//7 282//7 294//7 299//7
f 288//7 281//7 293//7 300//7
f 283//7 287//7 299//7 295//7
f 286//7 288//7 300//7 298//7
f 284//8 289//8 301//8 296//8
f 285//8 290//8 302//8 297//8
f 291//8 285//8 297//8 303//8
f 289//8 291//8 303//8 301//8
f 290//8 292//8 304//8 302//8
f 292//8 284//8 296//8 304//8
