# Blender v2.79 (sub 0) OBJ File: 'blaster.blend'
# www.blender.org
mtllib blaster2.mtl
o Cylinder_Cylinder.002
v 0.557325 1.106235 0.156695
v -0.547262 1.106235 0.156695
v -0.536650 1.534425 0.156695
v -0.505221 1.638032 0.156695
v -0.454184 1.733516 0.156695
v -0.385499 1.817209 0.156695
v -0.301806 1.885894 0.156695
v -0.206322 1.936931 0.156695
v -0.102715 1.968360 0.156695
v 0.005032 1.978972 0.156695
v 0.112779 1.968359 0.156695
v 0.216386 1.936931 0.156695
v 0.311870 1.885893 0.156695
v 0.395563 1.817208 0.156695
v 0.464247 1.733516 0.156695
v 0.515285 1.638031 0.156695
v 0.546713 1.534424 0.156695
v 0.557325 1.107982 0.160348
v -0.547262 1.107982 0.160348
v -0.536650 1.536173 0.160348
v -0.505221 1.639779 0.160348
v -0.454184 1.735263 0.160348
v -0.385499 1.818956 0.160348
v -0.301806 1.887641 0.160348
v -0.206322 1.938678 0.160348
v -0.102715 1.970107 0.160348
v 0.005032 1.980719 0.160348
v 0.112779 1.970107 0.160348
v 0.216386 1.938678 0.160348
v 0.311870 1.887640 0.160348
v 0.395563 1.818955 0.160348
v 0.464247 1.735263 0.160348
v 0.515285 1.639778 0.160348
v 0.546713 1.536172 0.160348
v 0.003394 1.270547 0.167689
v 0.557325 1.106235 -0.169659
v -0.547262 1.106235 -0.169659
v -0.536650 1.534425 -0.169659
v -0.505221 1.638032 -0.169659
v -0.454184 1.733516 -0.169659
v -0.385499 1.817209 -0.169659
v -0.301806 1.885894 -0.169659
v -0.206322 1.936931 -0.169659
v -0.102715 1.968360 -0.169659
v 0.005032 1.978972 -0.169659
v 0.112779 1.968359 -0.169659
v 0.216386 1.936931 -0.169659
v 0.311870 1.885893 -0.169659
v 0.395563 1.817208 -0.169659
v 0.464247 1.733516 -0.169659
v 0.515285 1.638031 -0.169659
v 0.546713 1.534424 -0.169659
v 0.557325 1.106235 -0.169659
v -0.547262 1.106235 -0.169659
v -0.536650 1.534425 -0.169659
v -0.505221 1.638032 -0.169659
v -0.454184 1.733516 -0.169659
v -0.385499 1.817209 -0.169659
v -0.301806 1.885894 -0.169659
v -0.206322 1.936931 -0.169659
v -0.102715 1.968360 -0.169659
v 0.005032 1.978972 -0.169659
v 0.112779 1.968359 -0.169659
v 0.216386 1.936931 -0.169659
v 0.311870 1.885893 -0.169659
v 0.395563 1.817208 -0.169659
v 0.464247 1.733516 -0.169659
v 0.515285 1.638031 -0.169659
v 0.546713 1.534424 -0.169659
v 0.005032 1.106235 -0.170350
v 0.557325 1.106235 -0.006482
v 0.546713 0.998488 -0.006482
v 0.515284 0.894881 -0.006482
v 0.464247 0.799397 -0.006482
v 0.395562 0.715704 -0.006482
v 0.311869 0.647020 -0.006482
v 0.216385 0.595982 -0.006482
v 0.112779 0.564553 -0.006482
v 0.005032 0.553941 -0.006482
v -0.102716 0.564553 -0.006482
v -0.206322 0.595982 -0.006482
v -0.301806 0.647020 -0.006482
v -0.385499 0.715704 -0.006482
v -0.454184 0.799397 -0.006482
v -0.505221 0.894881 -0.006482
v -0.536650 0.998488 -0.006482
v -0.547262 1.106235 -0.006482
v -0.536650 1.534425 -0.006482
v -0.505221 1.638032 -0.006482
v -0.454184 1.733516 -0.006482
v -0.385499 1.817209 -0.006482
v -0.301806 1.885894 -0.006482
v -0.206322 1.936931 -0.006482
v -0.102715 1.968360 -0.006482
v 0.005032 1.978972 -0.006482
v 0.112779 1.968359 -0.006482
v 0.216386 1.936931 -0.006482
v 0.311870 1.885893 -0.006482
v 0.395563 1.817208 -0.006482
v 0.464247 1.733516 -0.006482
v 0.515285 1.638031 -0.006482
v 0.546713 1.534424 -0.006482
v -1.116681 -1.143896 -0.074528
v -0.551717 1.108203 -0.170396
v 1.123468 -1.143896 -0.074528
v 0.558504 1.108203 -0.170396
v -1.116681 -1.143896 0.065437
v -0.551717 1.108203 0.161305
v 1.123468 -1.143896 0.065437
v 0.558504 1.108203 0.161305
v 0.003394 -1.143896 -0.074528
v 0.003394 1.108203 -0.170396
v 0.003394 -1.143896 0.065437
v -0.401289 -0.026542 -0.074528
v -0.274162 1.108203 -0.170396
v -0.401289 -0.026542 0.149290
v 0.280949 1.108203 -0.170396
v 0.408077 -0.026542 0.149290
v 0.408077 -0.026542 -0.074528
v 1.105423 1.523517 -0.136641
v 1.105423 1.523517 0.127550
v 1.084195 1.307986 -0.136641
v 1.084195 1.307986 0.127550
v 1.021327 1.100737 -0.136641
v 1.021327 1.100737 0.127550
v 0.919235 0.909736 -0.136641
v 0.919235 0.909736 0.127550
v 0.781841 0.742322 -0.136641
v 0.781841 0.742322 0.127550
v 0.614427 0.604929 -0.091126
v 0.614427 0.604929 0.082036
v 0.423426 0.502837 -0.091126
v 0.423426 0.502837 0.082036
v 0.216178 0.439969 -0.091126
v 0.216178 0.439969 0.082036
v 0.000647 0.418741 -0.091126
v 0.000647 0.418741 0.082036
v -0.214884 0.439969 -0.091126
v -0.214884 0.439969 0.082036
v -0.422132 0.502837 -0.091126
v -0.422132 0.502837 0.082036
v -0.613133 0.604929 -0.091126
v -0.613133 0.604929 0.082036
v -0.780548 0.742322 -0.136641
v -0.780548 0.742322 0.127550
v -0.917941 0.909736 -0.136641
v -0.917941 0.909736 0.127550
v -1.020033 1.100738 -0.136641
v -1.020033 1.100738 0.127550
v -1.082901 1.307986 -0.136641
v -1.082901 1.307986 0.127550
v -1.104129 1.523517 -0.136641
v -1.104129 1.523517 0.127550
v -1.082901 1.739048 -0.136641
v -1.082901 1.739048 0.127550
v -1.020033 1.946297 -0.136641
v -1.020033 1.946297 0.127550
v -0.917940 2.137298 -0.136641
v -0.917940 2.137298 0.127550
v -0.780547 2.304712 -0.136641
v -0.780547 2.304712 0.127550
v -0.613133 2.442105 -0.136641
v -0.613133 2.442105 0.127550
v -0.422132 2.544197 -0.136641
v -0.422132 2.544197 0.127550
v -0.214883 2.607065 -0.136641
v -0.214883 2.607065 0.127550
v 0.000648 2.628293 -0.136641
v 0.000648 2.628293 0.127550
v 0.216179 2.607065 -0.136641
v 0.216179 2.607065 0.127550
v 0.423428 2.544196 -0.136641
v 0.423428 2.544196 0.127550
v 0.614429 2.442104 -0.136641
v 0.614429 2.442104 0.127550
v 0.781843 2.304710 -0.136641
v 0.781843 2.304710 0.127550
v 0.919235 2.137296 -0.136641
v 0.919235 2.137296 0.127550
v 1.021327 1.946295 -0.136641
v 1.021327 1.946295 0.127550
v 1.084195 1.739046 -0.136641
v 1.084195 1.739046 0.127550
v 0.804924 1.523517 -0.136641
v 0.804924 1.523517 0.127550
v 0.789473 1.366606 -0.136641
v 0.789473 1.366606 0.127550
v 0.743709 1.215730 -0.136641
v 0.743709 1.215730 0.127550
v 0.669386 1.076681 -0.136641
v 0.669386 1.076681 0.127550
v 0.559074 0.943997 -0.136641
v 0.559074 0.943997 0.127550
v 0.441356 0.850578 -0.091126
v 0.441356 0.850578 0.082036
v 0.308434 0.780455 -0.091126
v 0.308434 0.780455 0.082036
v 0.157558 0.734691 -0.091126
v 0.157558 0.734691 0.082036
v 0.000647 0.719240 -0.091126
v 0.000647 0.719240 0.082036
v -0.156264 0.734690 -0.091126
v -0.156264 0.734690 0.082036
v -0.307140 0.780455 -0.091126
v -0.307140 0.780455 0.082036
v -0.440062 0.850578 -0.091126
v -0.440062 0.850578 0.082036
v -0.557780 0.943997 -0.136641
v -0.557780 0.943997 0.127550
v -0.668092 1.076681 -0.136641
v -0.668092 1.076681 0.127550
v -0.742415 1.215730 -0.136641
v -0.742415 1.215730 0.127550
v -0.788180 1.366606 -0.136641
v -0.788180 1.366606 0.127550
v -0.803639 1.523517 -0.136641
v -0.803639 1.523517 0.127550
v -0.788179 1.680429 -0.136641
v -0.788179 1.680429 0.127550
v -0.742415 1.831304 -0.136641
v -0.742415 1.831305 0.127550
v -0.668092 1.970353 -0.136641
v -0.668092 1.970353 0.127550
v -0.568069 2.092234 -0.136641
v -0.568069 2.092234 0.127550
v -0.446188 2.192256 -0.136641
v -0.446188 2.192256 0.127550
v -0.307139 2.266579 -0.136641
v -0.307139 2.266579 0.127550
v -0.156264 2.312344 -0.136641
v -0.156264 2.312344 0.127550
v 0.000648 2.327803 -0.136641
v 0.000648 2.327803 0.127550
v 0.157560 2.312343 -0.136641
v 0.157560 2.312343 0.127550
v 0.308435 2.266578 -0.136641
v 0.308435 2.266579 0.127550
v 0.447484 2.192255 -0.136641
v 0.447484 2.192255 0.127550
v 0.569365 2.092232 -0.136641
v 0.569365 2.092233 0.127550
v 0.669387 1.970351 -0.136641
v 0.669387 1.970351 0.127550
v 0.743709 1.831302 -0.136641
v 0.743709 1.831302 0.127550
v 0.789474 1.680427 -0.136641
v 0.789474 1.680427 0.127550
v -0.832122 -0.009568 -0.122814
v 0.838909 -0.009568 -0.122814
v 0.838909 -0.009568 0.113723
v -0.832122 -0.009568 0.113723
v 0.003394 -0.009568 0.144903
v 0.003394 -0.009568 -0.122814
v -0.337258 0.545002 -0.122814
v -0.337258 0.545002 0.155342
v 0.344046 0.545002 0.155342
v 0.344046 0.545002 -0.122814
vn -0.8603 0.4599 -0.2199
vn 0.5950 0.7251 -0.3467
vn -0.7397 0.6071 -0.2903
vn 0.7397 0.6071 -0.2903
vn -0.5950 0.7251 -0.3467
vn 0.8603 0.4599 -0.2199
vn -0.4344 0.8126 -0.3885
vn 0.9479 0.2875 -0.1375
vn -0.2640 0.8702 -0.4160
vn 0.9996 0.0248 -0.0118
vn -0.0885 0.8986 -0.4297
vn 0.0885 0.8986 -0.4297
vn -0.9996 0.0248 -0.0118
vn 0.2640 0.8702 -0.4161
vn -0.9479 0.2875 -0.1375
vn 0.4344 0.8126 -0.3886
vn -0.0087 0.0072 0.9999
vn 0.0050 0.0094 0.9999
vn -0.0069 0.0085 0.9999
vn 0.0069 0.0084 0.9999
vn -0.0050 0.0094 0.9999
vn 0.0087 0.0072 0.9999
vn -0.0030 0.0100 0.9999
vn 0.0103 0.0055 0.9999
vn -0.0134 0.0003 0.9999
vn -0.0010 0.0103 0.9999
vn 0.0118 0.0036 0.9999
vn -0.0118 0.0036 0.9999
vn 0.0010 0.0103 0.9999
vn 0.0133 0.0003 0.9999
vn -0.0104 0.0056 0.9999
vn 0.0030 0.0100 0.9999
vn -0.0000 -0.3148 0.9491
vn 0.0000 0.0000 1.0000
vn -0.0007 0.0006 -1.0000
vn 0.0004 0.0007 -1.0000
vn -0.0005 0.0007 -1.0000
vn 0.0005 0.0007 -1.0000
vn -0.0004 0.0007 -1.0000
vn 0.0007 0.0006 -1.0000
vn -0.0002 0.0008 -1.0000
vn 0.0009 0.0005 -1.0000
vn -0.0013 0.0000 -1.0000
vn -0.0001 0.0008 -1.0000
vn 0.0010 0.0003 -1.0000
vn -0.0010 0.0003 -1.0000
vn 0.0001 0.0008 -1.0000
vn 0.0013 0.0000 -1.0000
vn -0.0009 0.0005 -1.0000
vn 0.0002 0.0008 -1.0000
vn -0.0000 -0.3547 -0.9350
vn -0.0475 -0.0661 -0.9967
vn 0.9699 0.2433 0.0000
vn -0.0305 -0.0222 0.9993
vn -0.9699 0.2433 0.0000
vn 0.8422 -0.5392 0.0000
vn 0.9402 -0.3405 0.0000
vn -0.0017 -0.0178 0.9998
vn -0.0490 -0.0546 -0.9973
vn 0.0475 -0.0661 -0.9967
vn -0.9402 -0.3405 0.0000
vn 0.0017 -0.0178 0.9998
vn 0.0305 -0.0222 0.9993
vn -0.8422 -0.5392 0.0000
vn 0.0490 -0.0546 -0.9973
vn 0.0000 -0.0000 -1.0000
vn -0.1805 -0.1597 -0.9705
vn -0.1805 -0.1597 0.9705
vn 0.1805 -0.1597 -0.9705
vn 0.1805 -0.1597 0.9705
vn 0.1162 -0.0518 -0.9919
vn 0.0828 -0.0148 0.9965
vn 0.0129 -0.0505 0.9986
vn 0.1080 -0.0782 -0.9911
vn -0.1162 -0.0518 -0.9919
vn -0.0129 -0.0505 0.9986
vn -0.0828 -0.0148 0.9965
vn -0.1080 -0.0782 -0.9911
vn -0.9551 -0.2962 0.0067
vn -0.7113 -0.2064 0.6718
vn -0.9897 0.1401 -0.0291
vn -0.9873 0.1590 0.0000
vn -0.9254 0.3693 -0.0852
vn -0.9239 0.3827 0.0000
vn -0.8312 0.5415 -0.1261
vn -0.8314 0.5556 0.0000
vn -0.7047 0.6910 -0.1609
vn -0.7071 0.7071 0.0000
vn -0.5518 0.8124 -0.1885
vn -0.5556 0.8314 0.0000
vn -0.3790 0.9016 -0.2083
vn -0.3827 0.9239 0.0000
vn -0.1928 0.9562 -0.2202
vn -0.1951 0.9808 0.0000
vn 0.0000 0.9745 -0.2242
vn 0.0000 1.0000 0.0000
vn 0.1928 0.9562 -0.2202
vn 0.1951 0.9808 0.0000
vn 0.3790 0.9016 -0.2083
vn 0.3827 0.9239 0.0000
vn 0.5518 0.8124 -0.1885
vn 0.5556 0.8314 0.0000
vn 0.7047 0.6910 -0.1609
vn 0.7071 0.7071 0.0000
vn 0.8312 0.5415 -0.1261
vn 0.8314 0.5556 0.0000
vn 0.9254 0.3693 -0.0852
vn 0.9239 0.3827 0.0000
vn 0.9897 0.1401 -0.0291
vn 0.9873 0.1590 0.0000
vn 0.7113 -0.2064 0.6718
vn 0.9551 -0.2962 0.0067
vn -0.6949 0.1119 0.7103
vn -0.9478 -0.3128 0.0616
vn -0.6517 0.2699 0.7088
vn -0.5865 0.3919 0.7088
vn -0.4988 0.4988 0.7088
vn -0.3919 0.5865 0.7088
vn -0.2699 0.6517 0.7088
vn -0.1376 0.6918 0.7088
vn 0.0000 0.7054 0.7088
vn 0.1376 0.6918 0.7088
vn 0.2699 0.6517 0.7088
vn 0.3919 0.5865 0.7088
vn 0.4988 0.4988 0.7088
vn 0.5865 0.3919 0.7088
vn 0.6517 0.2699 0.7088
vn 0.6949 0.1119 0.7103
vn 0.9478 -0.3128 0.0616
vn 0.7279 0.0000 -0.6857
vn 0.7279 0.0000 0.6857
vn 0.7139 -0.1420 0.6857
vn 0.7139 -0.1420 -0.6857
vn 0.6725 -0.2785 0.6857
vn 0.6725 -0.2785 -0.6857
vn 0.6052 -0.4044 0.6857
vn 0.6052 -0.4044 -0.6857
vn 0.4424 -0.5533 0.7058
vn 0.4424 -0.5533 -0.7058
vn 0.3575 -0.6711 0.6495
vn 0.3575 -0.6711 -0.6495
vn 0.2785 -0.6725 0.6857
vn 0.2785 -0.6725 -0.6857
vn 0.1420 -0.7139 0.6857
vn 0.1420 -0.7139 -0.6857
vn 0.0000 -0.7279 0.6857
vn 0.0000 -0.7279 -0.6857
vn -0.1420 -0.7139 0.6857
vn -0.1420 -0.7139 -0.6857
vn -0.2785 -0.6725 0.6857
vn -0.2785 -0.6725 -0.6857
vn -0.3575 -0.6711 0.6495
vn -0.3575 -0.6711 -0.6495
vn -0.4424 -0.5533 0.7058
vn -0.4424 -0.5533 -0.7058
vn -0.6052 -0.4044 0.6857
vn -0.6052 -0.4044 -0.6857
vn -0.6725 -0.2785 0.6857
vn -0.6725 -0.2785 -0.6857
vn -0.7139 -0.1420 0.6857
vn -0.7139 -0.1420 -0.6857
vn -0.7279 0.0000 0.6857
vn -0.7279 0.0000 -0.6857
vn -0.7139 0.1420 0.6857
vn -0.7139 0.1420 -0.6857
vn -0.6725 0.2785 0.6857
vn -0.6725 0.2785 -0.6857
vn -0.6052 0.4044 0.6857
vn -0.6052 0.4044 -0.6857
vn -0.5147 0.5147 0.6857
vn -0.5147 0.5147 -0.6857
vn -0.4044 0.6052 0.6857
vn -0.4044 0.6052 -0.6857
vn -0.2785 0.6725 0.6857
vn -0.2785 0.6725 -0.6857
vn -0.1420 0.7139 0.6857
vn -0.1420 0.7139 -0.6857
vn 0.0000 0.7279 0.6857
vn 0.0000 0.7279 -0.6857
vn 0.1420 0.7139 0.6857
vn 0.1420 0.7139 -0.6857
vn 0.2785 0.6725 0.6857
vn 0.2785 0.6725 -0.6857
vn 0.4044 0.6052 0.6857
vn 0.4044 0.6052 -0.6857
vn 0.5147 0.5147 0.6857
vn 0.5147 0.5147 -0.6857
vn 0.6052 0.4044 0.6857
vn 0.6052 0.4044 -0.6857
vn 0.6725 0.2785 0.6857
vn 0.6725 0.2785 -0.6857
vn 0.7139 0.1420 0.6857
vn 0.7139 0.1420 -0.6857
vn -0.6836 0.0000 -0.7298
vn -0.6705 0.1333 -0.7298
vn -0.6705 0.1333 0.7298
vn -0.6836 0.0000 0.7298
vn -0.6316 0.2616 -0.7299
vn -0.6316 0.2616 0.7299
vn -0.5665 0.3811 -0.7306
vn -0.5665 0.3811 0.7306
vn -0.5285 0.3948 -0.7515
vn -0.5285 0.3948 0.7515
vn -0.4636 0.5495 -0.6950
vn -0.4636 0.5495 0.6950
vn -0.2601 0.6329 -0.7292
vn -0.2601 0.6329 0.7292
vn -0.1333 0.6705 -0.7298
vn -0.1333 0.6705 0.7298
vn 0.0000 0.6836 -0.7298
vn 0.0000 0.6836 0.7298
vn 0.1333 0.6705 -0.7298
vn 0.1333 0.6705 0.7298
vn 0.2601 0.6329 -0.7292
vn 0.2601 0.6329 0.7292
vn 0.4636 0.5495 -0.6950
vn 0.4636 0.5495 0.6950
vn 0.5285 0.3948 -0.7515
vn 0.5285 0.3948 0.7515
vn 0.5665 0.3811 -0.7306
vn 0.5665 0.3811 0.7306
vn 0.6316 0.2616 -0.7299
vn 0.6316 0.2616 0.7299
vn 0.6705 0.1334 -0.7298
vn 0.6705 0.1334 0.7298
vn 0.6836 0.0000 -0.7299
vn 0.6836 0.0000 0.7299
vn 0.6705 -0.1334 -0.7298
vn 0.6705 -0.1334 0.7298
vn 0.6316 -0.2616 -0.7299
vn 0.6316 -0.2616 0.7299
vn 0.5684 -0.3798 -0.7298
vn 0.5684 -0.3798 0.7298
vn 0.4834 -0.4834 -0.7299
vn 0.4834 -0.4834 0.7299
vn 0.3798 -0.5684 -0.7298
vn 0.3798 -0.5684 0.7298
vn 0.2616 -0.6316 -0.7299
vn 0.2616 -0.6316 0.7299
vn 0.1334 -0.6705 -0.7298
vn 0.1334 -0.6705 0.7298
vn 0.0000 -0.6836 -0.7299
vn 0.0000 -0.6836 0.7299
vn -0.1334 -0.6705 -0.7298
vn -0.1334 -0.6705 0.7298
vn -0.2616 -0.6316 -0.7299
vn -0.2616 -0.6316 0.7299
vn -0.3798 -0.5684 -0.7298
vn -0.3798 -0.5684 0.7298
vn -0.4834 -0.4834 -0.7299
vn -0.4834 -0.4834 0.7299
vn -0.5684 -0.3798 -0.7298
vn -0.5684 -0.3798 0.7298
vn -0.6316 -0.2616 -0.7299
vn -0.6316 -0.2616 0.7299
vn -0.6705 -0.1333 -0.7298
vn -0.6705 -0.1333 0.7298
vn -0.4447 0.5661 -0.6940
vn -0.5203 0.6262 0.5806
vn 0.0000 0.1998 0.9798
vn 0.5203 0.6262 0.5806
vn 0.4447 0.5661 -0.6940
usemtl None
s off
f 5//1 4//1 21//1 22//1
f 14//2 13//2 30//2 31//2
f 6//3 5//3 22//3 23//3
f 15//4 14//4 31//4 32//4
f 7//5 6//5 23//5 24//5
f 16//6 15//6 32//6 33//6
f 8//7 7//7 24//7 25//7
f 17//8 16//8 33//8 34//8
f 9//9 8//9 25//9 26//9
f 1//10 17//10 34//10 18//10
f 10//11 9//11 26//11 27//11
f 11//12 10//12 27//12 28//12
f 3//13 2//13 19//13 20//13
f 12//14 11//14 28//14 29//14
f 4//15 3//15 20//15 21//15
f 13//16 12//16 29//16 30//16
f 23//17 22//17 35//17
f 30//18 29//18 35//18
f 24//19 23//19 35//19
f 31//20 30//20 35//20
f 25//21 24//21 35//21
f 32//22 31//22 35//22
f 26//23 25//23 35//23
f 33//24 32//24 35//24
f 20//25 19//25 35//25
f 27//26 26//26 35//26
f 34//27 33//27 35//27
f 21//28 20//28 35//28
f 28//29 27//29 35//29
f 18//30 34//30 35//30
f 22//31 21//31 35//31
f 29//32 28//32 35//32
f 71//33 1//33 18//33 35//33 19//33 2//33 87//33 86//33 85//33 84//33 83//33 82//33 81//33 80//33 79//33 78//33 77//33 76//33 75//33 74//33 73//33 72//33
f 40//34 57//34 56//34 39//34
f 49//34 66//34 65//34 48//34
f 41//34 58//34 57//34 40//34
f 50//34 67//34 66//34 49//34
f 42//34 59//34 58//34 41//34
f 51//34 68//34 67//34 50//34
f 43//34 60//34 59//34 42//34
f 52//34 69//34 68//34 51//34
f 44//34 61//34 60//34 43//34
f 36//34 53//34 69//34 52//34
f 45//34 62//34 61//34 44//34
f 46//34 63//34 62//34 45//34
f 38//34 55//34 54//34 37//34
f 47//34 64//34 63//34 46//34
f 39//34 56//34 55//34 38//34
f 48//34 65//34 64//34 47//34
f 58//35 70//35 57//35
f 65//36 70//36 64//36
f 59//37 70//37 58//37
f 66//38 70//38 65//38
f 60//39 70//39 59//39
f 67//40 70//40 66//40
f 61//41 70//41 60//41
f 68//42 70//42 67//42
f 55//43 70//43 54//43
f 62//44 70//44 61//44
f 69//45 70//45 68//45
f 56//46 70//46 55//46
f 63//47 70//47 62//47
f 53//48 70//48 69//48
f 57//49 70//49 56//49
f 64//50 70//50 63//50
f 71//51 72//51 73//51 74//51 75//51 76//51 77//51 78//51 79//51 80//51 81//51 82//51 83//51 84//51 85//51 86//51 87//51 37//51 54//51 70//51 53//51 36//51
f 257//52 117//52 106//52 249//52
f 249//53 106//53 110//53 250//53
f 255//54 35//54 108//54 251//54
f 251//55 108//55 104//55 248//55
f 114//56 116//56 107//56 103//56
f 119//57 118//57 113//57 111//57
f 256//58 35//58 252//58
f 254//59 115//59 112//59 253//59
f 248//60 104//60 115//60 254//60
f 111//61 113//61 116//61 114//61
f 252//62 35//62 255//62
f 250//63 110//63 35//63 256//63
f 105//64 109//64 118//64 119//64
f 253//65 112//65 117//65 257//65
f 120//66 122//66 186//66 184//66
f 123//34 121//34 185//34 187//34
f 122//66 124//66 188//66 186//66
f 125//34 123//34 187//34 189//34
f 124//66 126//66 190//66 188//66
f 127//34 125//34 189//34 191//34
f 126//66 128//66 192//66 190//66
f 129//34 127//34 191//34 193//34
f 128//67 130//67 194//67 192//67
f 131//68 129//68 193//68 195//68
f 130//66 132//66 196//66 194//66
f 133//34 131//34 195//34 197//34
f 132//66 134//66 198//66 196//66
f 135//34 133//34 197//34 199//34
f 134//66 136//66 200//66 198//66
f 137//34 135//34 199//34 201//34
f 136//66 138//66 202//66 200//66
f 139//34 137//34 201//34 203//34
f 138//66 140//66 204//66 202//66
f 141//34 139//34 203//34 205//34
f 140//66 142//66 206//66 204//66
f 143//34 141//34 205//34 207//34
f 142//69 144//69 208//69 206//69
f 145//70 143//70 207//70 209//70
f 144//66 146//66 210//66 208//66
f 147//34 145//34 209//34 211//34
f 146//66 148//66 212//66 210//66
f 149//34 147//34 211//34 213//34
f 148//66 150//66 214//66 212//66
f 151//34 149//34 213//34 215//34
f 150//66 152//66 216//66 214//66
f 153//34 151//34 215//34 217//34
f 152//66 154//66 218//66 216//66
f 155//34 153//34 217//34 219//34
f 154//66 156//66 220//66 218//66
f 157//34 155//34 219//34 221//34
f 156//66 158//66 222//66 220//66
f 159//34 157//34 221//34 223//34
f 158//66 160//66 224//66 222//66
f 161//34 159//34 223//34 225//34
f 160//66 162//66 226//66 224//66
f 163//34 161//34 225//34 227//34
f 162//66 164//66 228//66 226//66
f 165//34 163//34 227//34 229//34
f 164//66 166//66 230//66 228//66
f 167//34 165//34 229//34 231//34
f 166//66 168//66 232//66 230//66
f 169//34 167//34 231//34 233//34
f 168//66 170//66 234//66 232//66
f 171//34 169//34 233//34 235//34
f 170//66 172//66 236//66 234//66
f 173//34 171//34 235//34 237//34
f 172//66 174//66 238//66 236//66
f 175//34 173//34 237//34 239//34
f 174//66 176//66 240//66 238//66
f 177//34 175//34 239//34 241//34
f 176//66 178//66 242//66 240//66
f 179//34 177//34 241//34 243//34
f 178//66 180//66 244//66 242//66
f 181//34 179//34 243//34 245//34
f 180//66 182//66 246//66 244//66
f 183//34 181//34 245//34 247//34
f 182//66 120//66 184//66 246//66
f 121//34 183//34 247//34 185//34
f 111//71 253//71 257//71 119//71
f 109//72 250//72 256//72 118//72
f 113//73 252//73 255//73 116//73
f 103//74 248//74 254//74 114//74
f 114//75 254//75 253//75 111//75
f 118//76 256//76 252//76 113//76
f 107//55 251//55 248//55 103//55
f 116//77 255//77 251//77 107//77
f 105//53 249//53 250//53 109//53
f 119//78 257//78 249//78 105//78
s 1
f 87//79 2//80 3//81 88//82
f 88//82 3//81 4//83 89//84
f 89//84 4//83 5//85 90//86
f 90//86 5//85 6//87 91//88
f 91//88 6//87 7//89 92//90
f 92//90 7//89 8//91 93//92
f 93//92 8//91 9//93 94//94
f 94//94 9//93 10//95 95//96
f 95//96 10//95 11//97 96//98
f 96//98 11//97 12//99 97//100
f 97//100 12//99 13//101 98//102
f 98//102 13//101 14//103 99//104
f 99//104 14//103 15//105 100//106
f 100//106 15//105 16//107 101//108
f 101//108 16//107 17//109 102//110
f 102//110 17//109 1//111 71//112
f 87//79 88//82 38//113 37//114
f 88//82 89//84 39//115 38//113
f 89//84 90//86 40//116 39//115
f 90//86 91//88 41//117 40//116
f 91//88 92//90 42//118 41//117
f 92//90 93//92 43//119 42//118
f 93//92 94//94 44//120 43//119
f 94//94 95//96 45//121 44//120
f 95//96 96//98 46//122 45//121
f 96//98 97//100 47//123 46//122
f 97//100 98//102 48//124 47//123
f 98//102 99//104 49//125 48//124
f 99//104 100//106 50//126 49//125
f 100//106 101//108 51//127 50//126
f 101//108 102//110 52//128 51//127
f 102//110 71//112 36//129 52//128
f 120//130 121//131 123//132 122//133
f 122//133 123//132 125//134 124//135
f 124//135 125//134 127//136 126//137
f 126//137 127//136 129//138 128//139
f 128//139 129//138 131//140 130//141
f 130//141 131//140 133//142 132//143
f 132//143 133//142 135//144 134//145
f 134//145 135//144 137//146 136//147
f 136//147 137//146 139//148 138//149
f 138//149 139//148 141//150 140//151
f 140//151 141//150 143//152 142//153
f 142//153 143//152 145//154 144//155
f 144//155 145//154 147//156 146//157
f 146//157 147//156 149//158 148//159
f 148//159 149//158 151//160 150//161
f 150//161 151//160 153//162 152//163
f 152//163 153//162 155//164 154//165
f 154//165 155//164 157//166 156//167
f 156//167 157//166 159//168 158//169
f 158//169 159//168 161//170 160//171
f 160//171 161//170 163//172 162//173
f 162//173 163//172 165//174 164//175
f 164//175 165//174 167//176 166//177
f 166//177 167//176 169//178 168//179
f 168//179 169//178 171//180 170//181
f 170//181 171//180 173//182 172//183
f 172//183 173//182 175//184 174//185
f 174//185 175//184 177//186 176//187
f 176//187 177//186 179//188 178//189
f 178//189 179//188 181//190 180//191
f 180//191 181//190 183//192 182//193
f 182//193 183//192 121//131 120//130
f 184//194 186//195 187//196 185//197
f 186//195 188//198 189//199 187//196
f 188//198 190//200 191//201 189//199
f 190//200 192//202 193//203 191//201
f 192//202 194//204 195//205 193//203
f 194//204 196//206 197//207 195//205
f 196//206 198//208 199//209 197//207
f 198//208 200//210 201//211 199//209
f 200//210 202//212 203//213 201//211
f 202//212 204//214 205//215 203//213
f 204//214 206//216 207//217 205//215
f 206//216 208//218 209//219 207//217
f 208//218 210//220 211//221 209//219
f 210//220 212//222 213//223 211//221
f 212//222 214//224 215//225 213//223
f 214//224 216//226 217//227 215//225
f 216//226 218//228 219//229 217//227
f 218//228 220//230 221//231 219//229
f 220//230 222//232 223//233 221//231
f 222//232 224//234 225//235 223//233
f 224//234 226//236 227//237 225//235
f 226//236 228//238 229//239 227//237
f 228//238 230//240 231//241 229//239
f 230//240 232//242 233//243 231//241
f 232//242 234//244 235//245 233//243
f 234//244 236//246 237//247 235//245
f 236//246 238//248 239//249 237//247
f 238//248 240//250 241//251 239//249
f 240//250 242//252 243//253 241//251
f 242//252 244//254 245//255 243//253
f 244//254 246//256 247//257 245//255
f 246//256 184//194 185//197 247//257
f 104//258 108//259 35//260 110//261 106//262
