# Blender v2.79 (sub 0) OBJ File: ''
# www.blender.org
mtllib blaster.mtl
o Cube_Cube.001
v -1.116681 -1.143896 -0.234234
v -0.551717 1.108203 -0.555111
v 1.123468 -1.143896 -0.234234
v 0.558504 1.108203 -0.555111
v -1.116681 -1.143896 0.234234
v -0.551717 1.108203 0.555111
v 1.123468 -1.143896 0.234234
v 0.558504 1.108203 0.555111
v 0.003394 -1.143896 -0.234234
v 0.003394 1.108203 -0.555111
v 0.003394 -1.143896 0.234234
v 0.003394 1.108203 0.555111
v -0.401290 -0.026542 -0.234234
v -0.274162 1.108203 0.555111
v -0.274162 1.108203 -0.555111
v -0.401290 -0.026542 0.234234
v 0.280949 1.108203 -0.555111
v 0.408077 -0.026542 0.234234
v 0.408077 -0.026542 -0.234234
v 0.280949 1.108203 0.555111
v 1.105423 1.523517 -0.442130
v 1.105423 1.523517 0.442130
v 1.084195 1.307986 -0.442130
v 1.084195 1.307986 0.442130
v 1.021327 1.100738 -0.442130
v 1.021327 1.100738 0.442130
v 0.919235 0.909736 -0.442130
v 0.919235 0.909736 0.442130
v 0.781842 0.742323 -0.442130
v 0.781842 0.742323 0.442130
v 0.614427 0.604929 -0.289791
v 0.614427 0.604929 0.289791
v 0.423426 0.502837 -0.289791
v 0.423426 0.502837 0.289791
v 0.216178 0.439969 -0.289791
v 0.216178 0.439969 0.289791
v 0.000647 0.418741 -0.289791
v 0.000647 0.418741 0.289791
v -0.214884 0.439969 -0.289791
v -0.214884 0.439969 0.289791
v -0.422132 0.502837 -0.289791
v -0.422132 0.502837 0.289791
v -0.613134 0.604929 -0.289791
v -0.613134 0.604929 0.289791
v -0.780548 0.742323 -0.442130
v -0.780548 0.742323 0.442130
v -0.917941 0.909736 -0.442130
v -0.917941 0.909736 0.442130
v -1.020033 1.100738 -0.442130
v -1.020033 1.100738 0.442130
v -1.082901 1.307986 -0.442130
v -1.082901 1.307986 0.442130
v -1.104129 1.523517 -0.442130
v -1.104129 1.523517 0.442130
v -1.082901 1.739048 -0.442130
v -1.082901 1.739048 0.442130
v -1.020033 1.946297 -0.442130
v -1.020033 1.946297 0.442130
v -0.917940 2.137298 -0.442130
v -0.917940 2.137298 0.442130
v -0.780547 2.304712 -0.442130
v -0.780547 2.304712 0.442130
v -0.613133 2.442105 -0.442130
v -0.613133 2.442105 0.442130
v -0.422132 2.544197 -0.442130
v -0.422132 2.544197 0.442130
v -0.214883 2.607065 -0.442130
v -0.214883 2.607065 0.442130
v 0.000648 2.628293 -0.442130
v 0.000648 2.628293 0.442130
v 0.216179 2.607065 -0.442130
v 0.216179 2.607065 0.442130
v 0.423428 2.544196 -0.442130
v 0.423428 2.544196 0.442130
v 0.614429 2.442104 -0.442130
v 0.614429 2.442104 0.442130
v 0.781843 2.304711 -0.442130
v 0.781843 2.304711 0.442130
v 0.919235 2.137296 -0.442130
v 0.919235 2.137296 0.442130
v 1.021327 1.946295 -0.442130
v 1.021327 1.946295 0.442130
v 1.084195 1.739046 -0.442130
v 1.084195 1.739046 0.442130
v 0.804924 1.523517 -0.442130
v 0.804924 1.523517 0.442130
v 0.789473 1.366606 -0.442130
v 0.789473 1.366606 0.442130
v 0.743709 1.215730 -0.442130
v 0.743709 1.215730 0.442130
v 0.669386 1.076681 -0.442130
v 0.669386 1.076681 0.442130
v 0.559074 0.943997 -0.442130
v 0.559074 0.943997 0.442130
v 0.441356 0.850578 -0.289791
v 0.441356 0.850578 0.289791
v 0.308434 0.780455 -0.289791
v 0.308434 0.780455 0.289791
v 0.157558 0.734691 -0.289791
v 0.157558 0.734691 0.289791
v 0.000647 0.719240 -0.289791
v 0.000647 0.719240 0.289791
v -0.156264 0.734690 -0.289791
v -0.156264 0.734690 0.289791
v -0.307140 0.780455 -0.289791
v -0.307140 0.780455 0.289791
v -0.440063 0.850578 -0.289791
v -0.440063 0.850578 0.289791
v -0.557780 0.943997 -0.442130
v -0.557780 0.943997 0.442130
v -0.668092 1.076681 -0.442130
v -0.668092 1.076681 0.442130
v -0.742415 1.215730 -0.442130
v -0.742415 1.215730 0.442130
v -0.788180 1.366606 -0.442130
v -0.788180 1.366606 0.442130
v -0.803639 1.523517 -0.442130
v -0.803639 1.523517 0.442130
v -0.788180 1.680429 -0.442130
v -0.788180 1.680429 0.442130
v -0.742415 1.831304 -0.442130
v -0.742415 1.831305 0.442130
v -0.668092 1.970353 -0.442130
v -0.668092 1.970353 0.442130
v -0.568069 2.092234 -0.442130
v -0.568069 2.092234 0.442130
v -0.446188 2.192256 -0.442130
v -0.446188 2.192256 0.442130
v -0.307139 2.266579 -0.442130
v -0.307139 2.266579 0.442130
v -0.156264 2.312344 -0.442130
v -0.156264 2.312344 0.442130
v 0.000648 2.327803 -0.442130
v 0.000648 2.327803 0.442130
v 0.157560 2.312343 -0.442130
v 0.157560 2.312343 0.442130
v 0.308435 2.266578 -0.442130
v 0.308435 2.266578 0.442130
v 0.447484 2.192255 -0.442130
v 0.447484 2.192255 0.442130
v 0.569365 2.092232 -0.442130
v 0.569365 2.092233 0.442130
v 0.669387 1.970351 -0.442130
v 0.669387 1.970351 0.442130
v 0.743710 1.831302 -0.442130
v 0.743710 1.831302 0.442130
v 0.789474 1.680427 -0.442130
v 0.789474 1.680427 0.442130
v 0.557325 1.106235 0.539679
v -0.547262 1.106235 0.539679
v -0.536650 1.213982 0.539679
v -0.505221 1.317589 0.539679
v -0.454184 1.413073 0.539679
v -0.385499 1.496766 0.539679
v -0.301806 1.565450 0.539679
v -0.206322 1.616488 0.539679
v -0.102715 1.647917 0.539679
v 0.005032 1.658529 0.539679
v 0.112779 1.647916 0.539679
v 0.216386 1.616488 0.539679
v 0.311870 1.565450 0.539679
v 0.395563 1.496765 0.539679
v 0.464247 1.413072 0.539679
v 0.515285 1.317588 0.539679
v 0.546713 1.213981 0.539679
v 0.557325 1.107982 0.551908
v -0.547262 1.107982 0.551908
v -0.536650 1.215729 0.551908
v -0.505221 1.319336 0.551908
v -0.454184 1.414820 0.551908
v -0.385499 1.498513 0.551908
v -0.301806 1.567198 0.551908
v -0.206322 1.618235 0.551908
v -0.102715 1.649663 0.551908
v 0.005032 1.660276 0.551908
v 0.112779 1.649663 0.551908
v 0.216386 1.618235 0.551908
v 0.311870 1.567197 0.551908
v 0.395563 1.498512 0.551908
v 0.464247 1.414819 0.551908
v 0.515285 1.319335 0.551908
v 0.546713 1.215728 0.551908
v 0.005032 1.107982 0.554221
v 0.557325 1.106235 -0.552643
v -0.547262 1.106235 -0.552643
v -0.536650 1.213982 -0.552643
v -0.505221 1.317589 -0.552643
v -0.454184 1.413073 -0.552643
v -0.385499 1.496766 -0.552643
v -0.301806 1.565450 -0.552643
v -0.206322 1.616488 -0.552643
v -0.102715 1.647916 -0.552643
v 0.005032 1.658528 -0.552643
v 0.112779 1.647916 -0.552643
v 0.216386 1.616488 -0.552643
v 0.311870 1.565450 -0.552643
v 0.395563 1.496765 -0.552643
v 0.464247 1.413072 -0.552643
v 0.515285 1.317588 -0.552643
v 0.546713 1.213981 -0.552643
v 0.557325 1.106235 -0.552643
v -0.547262 1.106235 -0.552643
v -0.536650 1.213982 -0.552643
v -0.505221 1.317589 -0.552643
v -0.454184 1.413073 -0.552643
v -0.385499 1.496766 -0.552643
v -0.301806 1.565450 -0.552643
v -0.206322 1.616488 -0.552643
v -0.102715 1.647916 -0.552643
v 0.005032 1.658528 -0.552643
v 0.112779 1.647916 -0.552643
v 0.216386 1.616488 -0.552643
v 0.311870 1.565450 -0.552643
v 0.395563 1.496765 -0.552643
v 0.464247 1.413072 -0.552643
v 0.515285 1.317588 -0.552643
v 0.546713 1.213981 -0.552643
v 0.005032 1.106235 -0.554956
v 0.557325 1.106235 -0.006482
v 0.546713 0.998488 -0.006482
v 0.515284 0.894881 -0.006482
v 0.464247 0.799397 -0.006482
v 0.395562 0.715705 -0.006482
v 0.311869 0.647020 -0.006482
v 0.216385 0.595982 -0.006482
v 0.112779 0.564554 -0.006482
v 0.005032 0.553941 -0.006482
v -0.102716 0.564553 -0.006482
v -0.206322 0.595982 -0.006482
v -0.301806 0.647020 -0.006482
v -0.385499 0.715705 -0.006482
v -0.454184 0.799397 -0.006482
v -0.505221 0.894881 -0.006482
v -0.536650 0.998488 -0.006482
v -0.547262 1.106235 -0.006482
v -0.536650 1.213982 -0.006482
v -0.505221 1.317589 -0.006482
v -0.454184 1.413073 -0.006482
v -0.385499 1.496766 -0.006482
v -0.301806 1.565450 -0.006482
v -0.206322 1.616488 -0.006482
v -0.102715 1.647917 -0.006482
v 0.005032 1.658529 -0.006482
v 0.112779 1.647916 -0.006482
v 0.216386 1.616488 -0.006482
v 0.311870 1.565450 -0.006482
v 0.395563 1.496765 -0.006482
v 0.464247 1.413072 -0.006482
v 0.515285 1.317588 -0.006482
v 0.546713 1.213981 -0.006482
vn -0.2597 -0.2307 -0.9377
vn 0.9699 0.2433 0.0000
vn 0.2597 -0.2307 0.9377
vn -0.9699 0.2433 0.0000
vn 0.8422 -0.5392 0.0000
vn 0.9402 -0.3405 0.0000
vn 0.2766 -0.1689 0.9460
vn -0.2766 -0.1689 -0.9460
vn 0.2597 -0.2307 -0.9377
vn -0.9402 -0.3405 0.0000
vn -0.2766 -0.1689 0.9460
vn -0.2597 -0.2307 0.9377
vn -0.8422 -0.5392 0.0000
vn 0.2766 -0.1689 -0.9460
vn -0.0000 0.0000 -1.0000
vn -0.0000 0.0000 1.0000
vn -0.4787 -0.4236 -0.7690
vn -0.4787 -0.4236 0.7690
vn 0.4787 -0.4236 -0.7690
vn 0.4787 -0.4236 0.7690
vn -0.8799 0.4703 -0.0672
vn 0.6306 0.7683 -0.1098
vn -0.7699 0.6318 -0.0903
vn 0.7699 0.6318 -0.0902
vn -0.6306 0.7683 -0.1098
vn 0.8799 0.4703 -0.0672
vn -0.4677 0.8750 -0.1250
vn 0.9561 0.2900 -0.0414
vn -0.2876 0.9481 -0.1354
vn 0.9951 0.0980 -0.0140
vn -0.0970 0.9853 -0.1408
vn 0.0970 0.9853 -0.1408
vn -0.9951 0.0980 -0.0140
vn 0.2876 0.9481 -0.1355
vn -0.9561 0.2900 -0.0414
vn 0.4677 0.8750 -0.1250
vn -0.0033 0.0027 1.0000
vn 0.0020 0.0037 1.0000
vn -0.0027 0.0033 1.0000
vn 0.0027 0.0033 1.0000
vn -0.0020 0.0037 1.0000
vn 0.0033 0.0027 1.0000
vn -0.0012 0.0040 1.0000
vn 0.0037 0.0020 1.0000
vn -0.0042 0.0004 1.0000
vn -0.0004 0.0042 1.0000
vn 0.0040 0.0012 1.0000
vn -0.0040 0.0012 1.0000
vn 0.0004 0.0042 1.0000
vn 0.0042 0.0004 1.0000
vn -0.0037 0.0020 1.0000
vn 0.0012 0.0040 1.0000
vn -0.0000 -0.7910 0.6118
vn -0.0033 0.0027 -1.0000
vn 0.0020 0.0037 -1.0000
vn -0.0027 0.0033 -1.0000
vn 0.0027 0.0033 -1.0000
vn -0.0020 0.0037 -1.0000
vn 0.0033 0.0027 -1.0000
vn -0.0012 0.0040 -1.0000
vn 0.0037 0.0020 -1.0000
vn -0.0042 0.0004 -1.0000
vn -0.0004 0.0042 -1.0000
vn 0.0040 0.0012 -1.0000
vn -0.0040 0.0012 -1.0000
vn 0.0004 0.0042 -1.0000
vn 0.0042 0.0004 -1.0000
vn -0.0037 0.0020 -1.0000
vn 0.0012 0.0040 -1.0000
vn -0.0000 -0.7857 -0.6187
vn 0.7279 0.0000 -0.6857
vn 0.7279 0.0000 0.6857
vn 0.7139 -0.1420 0.6857
vn 0.7139 -0.1420 -0.6857
vn 0.6725 -0.2785 0.6857
vn 0.6725 -0.2785 -0.6857
vn 0.6052 -0.4044 0.6857
vn 0.6052 -0.4044 -0.6857
vn 0.3040 -0.6339 0.7111
vn 0.3040 -0.6339 -0.7111
vn 0.2952 -0.7817 0.5493
vn 0.2952 -0.7817 -0.5493
vn 0.2785 -0.6725 0.6857
vn 0.2785 -0.6725 -0.6857
vn 0.1420 -0.7139 0.6857
vn 0.1420 -0.7139 -0.6857
vn 0.0000 -0.7279 0.6857
vn 0.0000 -0.7279 -0.6857
vn -0.1420 -0.7139 0.6857
vn -0.1420 -0.7139 -0.6857
vn -0.2785 -0.6725 0.6857
vn -0.2785 -0.6725 -0.6857
vn -0.2952 -0.7817 0.5493
vn -0.2952 -0.7817 -0.5493
vn -0.3040 -0.6339 0.7111
vn -0.3040 -0.6339 -0.7111
vn -0.6052 -0.4044 0.6857
vn -0.6052 -0.4044 -0.6857
vn -0.6725 -0.2785 0.6857
vn -0.6725 -0.2785 -0.6857
vn -0.7139 -0.1420 0.6857
vn -0.7139 -0.1420 -0.6857
vn -0.7279 0.0000 0.6857
vn -0.7279 0.0000 -0.6857
vn -0.7139 0.1420 0.6857
vn -0.7139 0.1420 -0.6857
vn -0.6725 0.2785 0.6857
vn -0.6725 0.2785 -0.6857
vn -0.6052 0.4044 0.6857
vn -0.6052 0.4044 -0.6857
vn -0.5147 0.5147 0.6857
vn -0.5147 0.5147 -0.6857
vn -0.4044 0.6052 0.6857
vn -0.4044 0.6052 -0.6857
vn -0.2785 0.6725 0.6857
vn -0.2785 0.6725 -0.6857
vn -0.1420 0.7139 0.6857
vn -0.1420 0.7139 -0.6857
vn 0.0000 0.7279 0.6857
vn 0.0000 0.7279 -0.6857
vn 0.1420 0.7139 0.6857
vn 0.1420 0.7139 -0.6857
vn 0.2785 0.6725 0.6857
vn 0.2785 0.6725 -0.6857
vn 0.4044 0.6052 0.6857
vn 0.4044 0.6052 -0.6857
vn 0.5147 0.5147 0.6857
vn 0.5147 0.5147 -0.6857
vn 0.6052 0.4044 0.6857
vn 0.6052 0.4044 -0.6857
vn 0.6725 0.2785 0.6857
vn 0.6725 0.2785 -0.6857
vn 0.7139 0.1420 0.6857
vn 0.7139 0.1420 -0.6857
vn -0.6836 0.0000 -0.7298
vn -0.6705 0.1333 -0.7298
vn -0.6705 0.1333 0.7298
vn -0.6836 0.0000 0.7298
vn -0.6316 0.2616 -0.7299
vn -0.6316 0.2616 0.7299
vn -0.5665 0.3811 -0.7306
vn -0.5665 0.3811 0.7306
vn -0.6343 0.2284 -0.7385
vn -0.6343 0.2284 0.7385
vn -0.6067 0.5220 -0.5995
vn -0.6067 0.5220 0.5995
vn -0.2601 0.6329 -0.7292
vn -0.2601 0.6329 0.7292
vn -0.1333 0.6705 -0.7298
vn -0.1333 0.6705 0.7298
vn 0.0000 0.6836 -0.7298
vn 0.0000 0.6836 0.7298
vn 0.1333 0.6705 -0.7298
vn 0.1333 0.6705 0.7298
vn 0.2601 0.6329 -0.7292
vn 0.2601 0.6329 0.7292
vn 0.6067 0.5220 -0.5995
vn 0.6067 0.5220 0.5995
vn 0.6343 0.2284 -0.7385
vn 0.6343 0.2284 0.7385
vn 0.5665 0.3811 -0.7306
vn 0.5665 0.3811 0.7306
vn 0.6316 0.2616 -0.7299
vn 0.6316 0.2616 0.7299
vn 0.6705 0.1334 -0.7298
vn 0.6705 0.1334 0.7298
vn 0.6836 0.0000 -0.7299
vn 0.6836 0.0000 0.7299
vn 0.6705 -0.1334 -0.7298
vn 0.6705 -0.1334 0.7298
vn 0.6316 -0.2616 -0.7299
vn 0.6316 -0.2616 0.7299
vn 0.5684 -0.3798 -0.7298
vn 0.5684 -0.3798 0.7298
vn 0.4834 -0.4834 -0.7299
vn 0.4834 -0.4834 0.7299
vn 0.3798 -0.5684 -0.7298
vn 0.3798 -0.5684 0.7298
vn 0.2616 -0.6316 -0.7299
vn 0.2616 -0.6316 0.7299
vn 0.1334 -0.6705 -0.7298
vn 0.1334 -0.6705 0.7298
vn 0.0000 -0.6836 -0.7299
vn 0.0000 -0.6836 0.7299
vn -0.1334 -0.6705 -0.7298
vn -0.1334 -0.6705 0.7298
vn -0.2616 -0.6316 -0.7299
vn -0.2616 -0.6316 0.7299
vn -0.3798 -0.5684 -0.7298
vn -0.3798 -0.5684 0.7298
vn -0.4834 -0.4834 -0.7299
vn -0.4834 -0.4834 0.7299
vn -0.5684 -0.3798 -0.7298
vn -0.5684 -0.3798 0.7298
vn -0.6316 -0.2616 -0.7299
vn -0.6316 -0.2616 0.7299
vn -0.6705 -0.1333 -0.7298
vn -0.6705 -0.1333 0.7298
vn -0.3755 0.6131 -0.6950
vn -0.3755 0.6131 0.6950
vn -0.0216 0.6482 0.7612
vn 0.0000 0.6600 0.7512
vn 0.0216 0.6482 0.7612
vn 0.3755 0.6131 0.6950
vn 0.3755 0.6131 -0.6950
vn -0.8216 -0.5699 -0.0028
vn -0.7343 -0.5113 0.4464
vn -0.9815 0.1908 -0.0133
vn -0.9808 0.1951 0.0000
vn -0.9251 0.3787 -0.0268
vn -0.9239 0.3827 0.0000
vn -0.8329 0.5520 -0.0392
vn -0.8314 0.5556 0.0000
vn -0.7084 0.7040 -0.0501
vn -0.7071 0.7071 0.0000
vn -0.5566 0.8286 -0.0591
vn -0.5556 0.8314 0.0000
vn -0.3834 0.9212 -0.0657
vn -0.3827 0.9239 0.0000
vn -0.1954 0.9782 -0.0698
vn -0.1951 0.9808 0.0000
vn 0.0000 0.9974 -0.0712
vn 0.0000 1.0000 0.0000
vn 0.1954 0.9782 -0.0698
vn 0.1951 0.9808 0.0000
vn 0.3834 0.9212 -0.0657
vn 0.3827 0.9239 0.0000
vn 0.5567 0.8286 -0.0591
vn 0.5556 0.8314 0.0000
vn 0.7084 0.7040 -0.0501
vn 0.7071 0.7071 0.0000
vn 0.8329 0.5520 -0.0392
vn 0.8314 0.5556 0.0000
vn 0.9251 0.3787 -0.0268
vn 0.9239 0.3827 0.0000
vn 0.9815 0.1908 -0.0133
vn 0.9808 0.1951 0.0000
vn 0.7343 -0.5113 0.4464
vn 0.8216 -0.5700 -0.0028
vn -0.6918 0.1376 0.7088
vn -0.7846 -0.5421 0.3006
vn -0.6517 0.2699 0.7088
vn -0.5865 0.3919 0.7088
vn -0.4988 0.4988 0.7088
vn -0.3919 0.5865 0.7088
vn -0.2699 0.6517 0.7088
vn -0.1376 0.6918 0.7088
vn 0.0000 0.7054 0.7088
vn 0.1376 0.6918 0.7088
vn 0.2699 0.6517 0.7088
vn 0.3919 0.5865 0.7088
vn 0.4988 0.4988 0.7088
vn 0.5865 0.3919 0.7088
vn 0.6517 0.2699 0.7088
vn 0.6918 0.1376 0.7088
vn 0.7846 -0.5421 0.3006
usemtl None
s off
f 19//1 17//1 4//1 3//1
f 3//2 4//2 8//2 7//2
f 16//3 14//3 6//3 5//3
f 5//4 6//4 2//4 1//4
f 13//5 16//5 5//5 1//5
f 19//6 18//6 11//6 9//6
f 18//7 20//7 12//7 11//7
f 13//8 15//8 10//8 9//8
f 1//9 2//9 15//9 13//9
f 9//10 11//10 16//10 13//10
f 11//11 12//11 14//11 16//11
f 7//12 8//12 20//12 18//12
f 3//13 7//13 18//13 19//13
f 9//14 10//14 17//14 19//14
f 21//15 23//15 87//15 85//15
f 24//16 22//16 86//16 88//16
f 23//15 25//15 89//15 87//15
f 26//16 24//16 88//16 90//16
f 25//15 27//15 91//15 89//15
f 28//16 26//16 90//16 92//16
f 27//15 29//15 93//15 91//15
f 30//16 28//16 92//16 94//16
f 29//17 31//17 95//17 93//17
f 32//18 30//18 94//18 96//18
f 31//15 33//15 97//15 95//15
f 34//16 32//16 96//16 98//16
f 33//15 35//15 99//15 97//15
f 36//16 34//16 98//16 100//16
f 35//15 37//15 101//15 99//15
f 38//16 36//16 100//16 102//16
f 37//15 39//15 103//15 101//15
f 40//16 38//16 102//16 104//16
f 39//15 41//15 105//15 103//15
f 42//16 40//16 104//16 106//16
f 41//15 43//15 107//15 105//15
f 44//16 42//16 106//16 108//16
f 43//19 45//19 109//19 107//19
f 46//20 44//20 108//20 110//20
f 45//15 47//15 111//15 109//15
f 48//16 46//16 110//16 112//16
f 47//15 49//15 113//15 111//15
f 50//16 48//16 112//16 114//16
f 49//15 51//15 115//15 113//15
f 52//16 50//16 114//16 116//16
f 51//15 53//15 117//15 115//15
f 54//16 52//16 116//16 118//16
f 53//15 55//15 119//15 117//15
f 56//16 54//16 118//16 120//16
f 55//15 57//15 121//15 119//15
f 58//16 56//16 120//16 122//16
f 57//15 59//15 123//15 121//15
f 60//16 58//16 122//16 124//16
f 59//15 61//15 125//15 123//15
f 62//16 60//16 124//16 126//16
f 61//15 63//15 127//15 125//15
f 64//16 62//16 126//16 128//16
f 63//15 65//15 129//15 127//15
f 66//16 64//16 128//16 130//16
f 65//15 67//15 131//15 129//15
f 68//16 66//16 130//16 132//16
f 67//15 69//15 133//15 131//15
f 70//16 68//16 132//16 134//16
f 69//15 71//15 135//15 133//15
f 72//16 70//16 134//16 136//16
f 71//15 73//15 137//15 135//15
f 74//16 72//16 136//16 138//16
f 73//15 75//15 139//15 137//15
f 76//16 74//16 138//16 140//16
f 75//15 77//15 141//15 139//15
f 78//16 76//16 140//16 142//16
f 77//15 79//15 143//15 141//15
f 80//16 78//16 142//16 144//16
f 79//15 81//15 145//15 143//15
f 82//16 80//16 144//16 146//16
f 81//15 83//15 147//15 145//15
f 84//16 82//16 146//16 148//16
f 83//15 21//15 85//15 147//15
f 22//16 84//16 148//16 86//16
f 153//21 152//21 169//21 170//21
f 162//22 161//22 178//22 179//22
f 154//23 153//23 170//23 171//23
f 163//24 162//24 179//24 180//24
f 155//25 154//25 171//25 172//25
f 164//26 163//26 180//26 181//26
f 156//27 155//27 172//27 173//27
f 165//28 164//28 181//28 182//28
f 157//29 156//29 173//29 174//29
f 149//30 165//30 182//30 166//30
f 158//31 157//31 174//31 175//31
f 159//32 158//32 175//32 176//32
f 151//33 150//33 167//33 168//33
f 160//34 159//34 176//34 177//34
f 152//35 151//35 168//35 169//35
f 161//36 160//36 177//36 178//36
f 171//37 170//37 183//37
f 178//38 177//38 183//38
f 172//39 171//39 183//39
f 179//40 178//40 183//40
f 173//41 172//41 183//41
f 180//42 179//42 183//42
f 174//43 173//43 183//43
f 181//44 180//44 183//44
f 168//45 167//45 183//45
f 175//46 174//46 183//46
f 182//47 181//47 183//47
f 169//48 168//48 183//48
f 176//49 175//49 183//49
f 166//50 182//50 183//50
f 170//51 169//51 183//51
f 177//52 176//52 183//52
f 219//53 149//53 166//53 183//53 167//53 150//53 235//53 234//53 233//53 232//53 231//53 230//53 229//53 228//53 227//53 226//53 225//53 224//53 223//53 222//53 221//53 220//53
f 188//16 205//16 204//16 187//16
f 197//16 214//16 213//16 196//16
f 189//16 206//16 205//16 188//16
f 198//16 215//16 214//16 197//16
f 190//16 207//16 206//16 189//16
f 199//16 216//16 215//16 198//16
f 191//16 208//16 207//16 190//16
f 200//16 217//16 216//16 199//16
f 192//16 209//16 208//16 191//16
f 184//16 201//16 217//16 200//16
f 193//16 210//16 209//16 192//16
f 194//16 211//16 210//16 193//16
f 186//16 203//16 202//16 185//16
f 195//16 212//16 211//16 194//16
f 187//16 204//16 203//16 186//16
f 196//16 213//16 212//16 195//16
f 206//54 218//54 205//54
f 213//55 218//55 212//55
f 207//56 218//56 206//56
f 214//57 218//57 213//57
f 208//58 218//58 207//58
f 215//59 218//59 214//59
f 209//60 218//60 208//60
f 216//61 218//61 215//61
f 203//62 218//62 202//62
f 210//63 218//63 209//63
f 217//64 218//64 216//64
f 204//65 218//65 203//65
f 211//66 218//66 210//66
f 201//67 218//67 217//67
f 205//68 218//68 204//68
f 212//69 218//69 211//69
f 219//70 220//70 221//70 222//70 223//70 224//70 225//70 226//70 227//70 228//70 229//70 230//70 231//70 232//70 233//70 234//70 235//70 185//70 202//70 218//70 201//70 184//70
s 1
f 21//71 22//72 24//73 23//74
f 23//74 24//73 26//75 25//76
f 25//76 26//75 28//77 27//78
f 27//78 28//77 30//79 29//80
f 29//80 30//79 32//81 31//82
f 31//82 32//81 34//83 33//84
f 33//84 34//83 36//85 35//86
f 35//86 36//85 38//87 37//88
f 37//88 38//87 40//89 39//90
f 39//90 40//89 42//91 41//92
f 41//92 42//91 44//93 43//94
f 43//94 44//93 46//95 45//96
f 45//96 46//95 48//97 47//98
f 47//98 48//97 50//99 49//100
f 49//100 50//99 52//101 51//102
f 51//102 52//101 54//103 53//104
f 53//104 54//103 56//105 55//106
f 55//106 56//105 58//107 57//108
f 57//108 58//107 60//109 59//110
f 59//110 60//109 62//111 61//112
f 61//112 62//111 64//113 63//114
f 63//114 64//113 66//115 65//116
f 65//116 66//115 68//117 67//118
f 67//118 68//117 70//119 69//120
f 69//120 70//119 72//121 71//122
f 71//122 72//121 74//123 73//124
f 73//124 74//123 76//125 75//126
f 75//126 76//125 78//127 77//128
f 77//128 78//127 80//129 79//130
f 79//130 80//129 82//131 81//132
f 81//132 82//131 84//133 83//134
f 83//134 84//133 22//72 21//71
f 85//135 87//136 88//137 86//138
f 87//136 89//139 90//140 88//137
f 89//139 91//141 92//142 90//140
f 91//141 93//143 94//144 92//142
f 93//143 95//145 96//146 94//144
f 95//145 97//147 98//148 96//146
f 97//147 99//149 100//150 98//148
f 99//149 101//151 102//152 100//150
f 101//151 103//153 104//154 102//152
f 103//153 105//155 106//156 104//154
f 105//155 107//157 108//158 106//156
f 107//157 109//159 110//160 108//158
f 109//159 111//161 112//162 110//160
f 111//161 113//163 114//164 112//162
f 113//163 115//165 116//166 114//164
f 115//165 117//167 118//168 116//166
f 117//167 119//169 120//170 118//168
f 119//169 121//171 122//172 120//170
f 121//171 123//173 124//174 122//172
f 123//173 125//175 126//176 124//174
f 125//175 127//177 128//178 126//176
f 127//177 129//179 130//180 128//178
f 129//179 131//181 132//182 130//180
f 131//181 133//183 134//184 132//182
f 133//183 135//185 136//186 134//184
f 135//185 137//187 138//188 136//186
f 137//187 139//189 140//190 138//188
f 139//189 141//191 142//192 140//190
f 141//191 143//193 144//194 142//192
f 143//193 145//195 146//196 144//194
f 145//195 147//197 148//198 146//196
f 147//197 85//135 86//138 148//198
f 2//199 6//200 14//201 12//202 20//203 8//204 4//205
f 235//206 150//207 151//208 236//209
f 236//209 151//208 152//210 237//211
f 237//211 152//210 153//212 238//213
f 238//213 153//212 154//214 239//215
f 239//215 154//214 155//216 240//217
f 240//217 155//216 156//218 241//219
f 241//219 156//218 157//220 242//221
f 242//221 157//220 158//222 243//223
f 243//223 158//222 159//224 244//225
f 244//225 159//224 160//226 245//227
f 245//227 160//226 161//228 246//229
f 246//229 161//228 162//230 247//231
f 247//231 162//230 163//232 248//233
f 248//233 163//232 164//234 249//235
f 249//235 164//234 165//236 250//237
f 250//237 165//236 149//238 219//239
f 235//206 236//209 186//240 185//241
f 236//209 237//211 187//242 186//240
f 237//211 238//213 188//243 187//242
f 238//213 239//215 189//244 188//243
f 239//215 240//217 190//245 189//244
f 240//217 241//219 191//246 190//245
f 241//219 242//221 192//247 191//246
f 242//221 243//223 193//248 192//247
f 243//223 244//225 194//249 193//248
f 244//225 245//227 195//250 194//249
f 245//227 246//229 196//251 195//250
f 246//229 247//231 197//252 196//251
f 247//231 248//233 198//253 197//252
f 248//233 249//235 199//254 198//253
f 249//235 250//237 200//255 199//254
f 250//237 219//239 184//256 200//255
