# Blender v2.79 (sub 0) OBJ File: 'charge.blend'
# www.blender.org
mtllib charge.mtl
o Cube.001
v -0.307023 -1.146639 -0.331483
v -0.294224 0.455097 -0.171463
v -0.236847 1.013031 1.118645
v 0.395704 -1.149244 -0.361611
v 0.408503 0.452492 -0.201590
v 0.465881 1.010426 1.088518
v -0.313841 -0.110738 -0.635977
v -0.261219 0.400958 0.547214
v -0.287603 1.906681 -0.198413
v -0.234980 2.418377 0.984779
v 0.389323 -0.113344 -0.666124
v 0.441946 0.398352 0.517068
v 0.415562 1.904074 -0.228559
v 0.468184 2.415770 0.954633
vn -0.0136 0.9180 -0.3964
vn -0.9991 0.0037 0.0428
vn 0.9991 -0.0037 -0.0428
vn -0.0423 0.0997 -0.9941
vn 0.0335 -0.5579 0.8292
vn 0.0411 -0.2123 0.9763
vn -0.0411 0.2123 -0.9763
vn 0.0136 -0.9180 0.3964
usemtl Material
s off
f 3//1 6//1 5//1 2//1
f 2//2 1//2 3//2
f 6//3 4//3 5//3
f 2//4 5//4 4//4 1//4
f 1//5 4//5 6//5 3//5
f 10//1 14//1 13//1 9//1
f 9//2 7//2 8//2 10//2
f 12//6 14//6 10//6 8//6
f 12//3 11//3 13//3 14//3
f 9//7 13//7 11//7 7//7
f 7//8 11//8 12//8 8//8
