# Blender v2.79 (sub 0) OBJ File: 'gate.blend'
# www.blender.org
mtllib gate.mtl
o Cylinder
v -0.434586 0.000000 -8.874390
v 0.434586 0.000000 -8.874390
v -0.434586 -1.731308 -8.703871
v 0.434587 -1.731308 -8.703871
v -0.434586 -3.396082 -8.198868
v 0.434587 -3.396082 -8.198868
v -0.434586 -4.930347 -7.378785
v 0.434587 -4.930347 -7.378785
v -0.434586 -6.275141 -6.275141
v 0.434587 -6.275141 -6.275141
v -0.434586 -7.378787 -4.930346
v 0.434587 -7.378787 -4.930346
v -0.434586 -8.198867 -3.396082
v 0.434587 -8.198867 -3.396082
v -0.434586 -8.703871 -1.731308
v 0.434587 -8.703871 -1.731308
v -0.434586 -8.874389 -0.000000
v 0.434587 -8.874389 -0.000000
v -0.434586 -8.703871 1.731307
v 0.434587 -8.703871 1.731307
v -0.434586 -8.198867 3.396081
v 0.434587 -8.198867 3.396081
v -0.434586 -7.378787 4.930346
v 0.434587 -7.378787 4.930346
v -0.434586 -6.275141 6.275142
v 0.434587 -6.275141 6.275142
v -0.434586 -4.930346 7.378787
v 0.434587 -4.930346 7.378787
v -0.434586 -3.396080 8.198868
v 0.434587 -3.396080 8.198868
v -0.434586 -1.731305 8.703873
v 0.434587 -1.731305 8.703873
v -0.434586 0.000003 8.874391
v 0.434586 0.000003 8.874391
v -0.434587 1.731311 8.703871
v 0.434586 1.731311 8.703871
v -0.434587 3.396086 8.198866
v 0.434586 3.396086 8.198866
v -0.434587 4.930352 7.378783
v 0.434586 4.930352 7.378783
v -0.434587 6.275146 6.275138
v 0.434586 6.275146 6.275138
v -0.434587 7.378789 4.930342
v 0.434586 7.378789 4.930342
v -0.434587 8.198871 3.396076
v 0.434586 8.198871 3.396076
v -0.434587 8.703873 1.731301
v 0.434586 8.703873 1.731301
v -0.434587 8.874390 -0.000008
v 0.434586 8.874390 -0.000008
v -0.434587 8.703870 -1.731316
v 0.434586 8.703870 -1.731316
v -0.434587 8.198864 -3.396091
v 0.434586 8.198864 -3.396091
v -0.434587 7.378780 -4.930356
v 0.434586 7.378780 -4.930356
v -0.434587 6.275134 -6.275149
v 0.434586 6.275134 -6.275149
v -0.434587 4.930337 -7.378792
v 0.434586 4.930337 -7.378792
v -0.434587 3.396070 -8.198873
v 0.434586 3.396070 -8.198873
v -0.434587 1.731295 -8.703873
v 0.434586 1.731295 -8.703873
v -0.202732 -0.014039 -6.760526
v 0.180369 -0.032871 -6.818942
v -0.202732 -1.350302 -6.628922
v 0.180369 -1.369133 -6.687338
v -0.202732 -2.635202 -6.239157
v 0.180369 -2.654034 -6.297574
v -0.202732 -3.819375 -5.606204
v 0.180369 -3.838206 -5.664620
v -0.202732 -4.857317 -4.754392
v 0.180369 -4.876149 -4.812808
v -0.202732 -5.709130 -3.716449
v 0.180369 -5.727962 -3.774865
v -0.202732 -6.342083 -2.532276
v 0.180370 -6.360914 -2.590693
v -0.202731 -6.731848 -1.247377
v 0.180370 -6.750679 -1.305793
v -0.202731 -6.863451 0.088885
v 0.180370 -6.882283 0.030469
v -0.202731 -6.731848 1.425147
v 0.180370 -6.750679 1.366731
v -0.202732 -6.342083 2.710047
v 0.180370 -6.360915 2.651631
v -0.202732 -5.709130 3.894221
v 0.180369 -5.727962 3.835805
v -0.202732 -4.857317 4.932164
v 0.180369 -4.876149 4.873747
v -0.202732 -3.819374 5.783977
v 0.180369 -3.838206 5.725560
v -0.202732 -2.635201 6.416930
v 0.180369 -2.654032 6.358514
v -0.202732 -1.350300 6.806695
v 0.180369 -1.369132 6.748279
v -0.202732 -0.014037 6.938314
v 0.180369 -0.032869 6.879898
v -0.202732 1.322226 6.806694
v 0.180369 1.303394 6.748278
v -0.202732 2.607126 6.416928
v 0.180369 2.588295 6.358512
v -0.202732 3.791299 5.783974
v 0.180369 3.772468 5.725557
v -0.202732 4.829242 4.932161
v 0.180369 4.810410 4.873744
v -0.202732 5.681054 3.894217
v 0.180369 5.662222 3.835801
v -0.202732 6.314007 2.710043
v 0.180369 6.295175 2.651627
v -0.202733 6.703770 1.425142
v 0.180369 6.684938 1.366726
v -0.202733 6.835388 0.088879
v 0.180369 6.816556 0.030463
v -0.202733 6.703767 -1.247384
v 0.180369 6.684936 -1.305800
v -0.202732 6.314001 -2.532284
v 0.180369 6.295169 -2.590700
v -0.202732 5.681046 -3.716457
v 0.180369 5.662214 -3.774873
v -0.202732 4.829232 -4.754398
v 0.180369 4.810400 -4.812815
v -0.202732 3.791287 -5.606209
v 0.180369 3.772456 -5.664626
v -0.202732 2.607113 -6.239161
v 0.180369 2.588282 -6.297578
v -0.202732 1.322212 -6.628924
v 0.180369 1.303380 -6.687341
v -0.612091 0.000000 -7.679351
v -0.612091 -1.520202 -7.529627
v -0.612091 -2.981978 -7.086205
v -0.612091 -4.329159 -6.366122
v -0.612091 -5.509977 -5.397053
v -0.612091 -6.479046 -4.216234
v -0.612091 -7.199129 -2.869054
v -0.612091 -7.642550 -1.407278
v -0.612091 -7.792273 0.112923
v -0.612091 -7.642551 1.633125
v -0.612091 -7.199129 3.094900
v -0.612091 -6.479046 4.442082
v -0.612091 -5.509977 5.622900
v -0.612091 -4.329159 6.591970
v -0.612091 -2.981976 7.312054
v -0.612091 -1.520200 7.755476
v -0.612091 0.000003 7.905206
v -0.612092 1.520205 7.755474
v -0.612092 2.981981 7.312052
v -0.612092 4.329163 6.591967
v -0.612092 5.509980 5.622897
v -0.612092 6.479049 4.442078
v -0.612092 7.199132 3.094896
v -0.612092 7.642552 1.633119
v -0.612092 7.792283 0.112916
v -0.612092 7.642550 -1.407286
v -0.612092 7.199126 -2.869062
v -0.612092 6.479040 -4.216243
v -0.612092 5.509969 -5.397060
v -0.612092 4.329150 -6.366128
v -0.612092 2.981967 -7.086210
v -0.612092 1.520190 -7.529630
v 0.640624 0.000000 -7.816669
v 0.640624 -1.524961 -7.666476
v 0.640624 -2.991313 -7.221667
v 0.640624 -4.342712 -6.499329
v 0.640624 -5.527226 -5.527226
v 0.640624 -6.499330 -4.342711
v 0.640624 -7.221667 -2.991313
v 0.640624 -7.666476 -1.524961
v 0.640624 -7.816669 -0.000000
v 0.640624 -7.666477 1.524960
v 0.640624 -7.221667 2.991312
v 0.640624 -6.499330 4.342712
v 0.640624 -5.527226 5.527226
v 0.640624 -4.342712 6.499330
v 0.640624 -2.991312 7.221668
v 0.640624 -1.524959 7.666478
v 0.640624 0.000003 7.816678
v 0.640624 1.524964 7.666476
v 0.640624 2.991317 7.221666
v 0.640623 4.342716 6.499327
v 0.640623 5.527230 5.527223
v 0.640623 6.499333 4.342708
v 0.640623 7.221670 2.991307
v 0.640623 7.666479 1.524954
v 0.640623 7.816678 -0.000008
v 0.640623 7.666476 -1.524969
v 0.640623 7.221664 -2.991321
v 0.640623 6.499324 -4.342720
v 0.640623 5.527219 -5.527234
v 0.640623 4.342703 -6.499335
v 0.640624 2.991302 -7.221672
v 0.640624 1.524949 -7.666479
v 0.000000 0.000000 -6.849412
v 0.000000 -1.336262 -6.717808
v 0.000000 -2.621163 -6.328043
v 0.000000 -3.805335 -5.695090
v 0.000000 -4.843278 -4.843278
v 0.000000 -5.695090 -3.805335
v 0.000000 -6.328043 -2.621163
v 0.000001 -6.717808 -1.336263
v 0.000001 -6.849412 -0.000001
v 0.000001 -6.717809 1.336262
v 0.000000 -6.328044 2.621161
v 0.000000 -5.695090 3.805335
v 0.000000 -4.843278 4.843278
v 0.000000 -3.805335 5.695090
v 0.000000 -2.621161 6.328044
v 0.000000 -1.336261 6.717809
v -0.000000 0.000002 6.849428
v -0.000000 1.336265 6.717808
v -0.000000 2.621166 6.328042
v -0.000000 3.805339 5.695087
v -0.000000 4.843281 4.843275
v -0.000000 5.695093 3.805331
v -0.000000 6.328046 2.621157
v -0.000001 6.717810 1.336256
v -0.000001 6.849428 -0.000007
v -0.000001 6.717807 -1.336270
v -0.000000 6.328040 -2.621170
v -0.000000 5.695085 -3.805343
v -0.000000 4.843271 -4.843284
v -0.000000 3.805327 -5.695096
v -0.000000 2.621153 -6.328048
v -0.000000 1.336251 -6.717810
vn -0.1486 0.0969 0.9841
vn -0.1081 0.2886 0.9513
vn -0.0629 0.4705 0.8802
vn -0.0150 0.6343 0.7729
vn 0.0337 0.7726 0.6340
vn 0.0808 0.8790 0.4699
vn 0.1244 0.9495 0.2880
vn 0.1626 0.9819 0.0967
vn 0.1942 0.9762 -0.0961
vn 0.2181 0.9339 -0.2833
vn 0.2337 0.8575 -0.4583
vn 0.2407 0.7503 -0.6157
vn 0.2391 0.6160 -0.7506
vn 0.2287 0.4589 -0.8586
vn 0.2098 0.2838 -0.9356
vn 0.1828 0.0964 -0.9784
vn 0.1486 -0.0969 -0.9841
vn 0.1081 -0.2886 -0.9513
vn 0.0629 -0.4705 -0.8802
vn 0.0150 -0.6343 -0.7729
vn -0.0337 -0.7726 -0.6340
vn -0.0808 -0.8790 -0.4699
vn -0.1244 -0.9495 -0.2880
vn -0.1626 -0.9819 -0.0967
vn -0.1942 -0.9762 0.0962
vn -0.2181 -0.9339 0.2833
vn -0.2337 -0.8575 0.4583
vn -0.2407 -0.7503 0.6157
vn -0.2391 -0.6160 0.7506
vn -0.2287 -0.4589 0.8586
vn -0.2098 -0.2838 0.9356
vn -0.1828 -0.0964 0.9784
vn -0.9125 0.0401 0.4071
vn 0.9067 0.0413 0.4196
vn -0.9122 0.1190 0.3921
vn 0.9055 0.1232 0.4060
vn -0.9121 0.1933 0.3616
vn 0.9041 0.2014 0.3768
vn -0.9121 0.2601 0.3169
vn 0.9026 0.2730 0.3327
vn -0.9123 0.3165 0.2597
vn 0.9011 0.3352 0.2751
vn -0.9127 0.3603 0.1926
vn 0.8996 0.3852 0.2059
vn -0.9133 0.3898 0.1182
vn 0.8981 0.4208 0.1277
vn -0.9140 0.4038 0.0398
vn 0.8968 0.4403 0.0434
vn -0.9147 0.4021 -0.0396
vn 0.8957 0.4426 -0.0436
vn -0.9156 0.3849 -0.1168
vn 0.8948 0.4273 -0.1296
vn -0.9164 0.3530 -0.1887
vn 0.8942 0.3948 -0.2110
vn -0.9173 0.3079 -0.2527
vn 0.8939 0.3465 -0.2844
vn -0.9181 0.2515 -0.3064
vn 0.8940 0.2843 -0.3464
vn -0.9188 0.1861 -0.3481
vn 0.8944 0.2109 -0.3945
vn -0.9195 0.1141 -0.3763
vn 0.8951 0.1294 -0.4267
vn -0.9200 0.0384 -0.3901
vn 0.8961 0.0435 -0.4418
vn -0.9204 -0.0383 -0.3891
vn 0.8973 -0.0433 -0.4393
vn -0.9207 -0.1133 -0.3736
vn 0.8987 -0.1273 -0.4197
vn -0.9208 -0.1839 -0.3441
vn 0.9002 -0.2053 -0.3841
vn -0.9207 -0.2476 -0.3017
vn 0.9017 -0.2743 -0.3342
vn -0.9205 -0.3020 -0.2479
vn 0.9032 -0.3317 -0.2723
vn -0.9202 -0.3453 -0.1846
vn 0.9047 -0.3758 -0.2009
vn -0.9197 -0.3758 -0.1140
vn 0.9060 -0.4050 -0.1229
vn -0.9191 -0.3922 -0.0386
vn 0.9072 -0.4187 -0.0412
vn -0.9184 -0.3938 0.0388
vn 0.9081 -0.4167 0.0410
vn -0.9176 -0.3805 0.1154
vn 0.9089 -0.3991 0.1211
vn -0.9167 -0.3523 0.1883
vn 0.9093 -0.3669 0.1961
vn -0.9159 -0.3103 0.2547
vn 0.9096 -0.3212 0.2636
vn -0.9150 -0.2559 0.3118
vn 0.9095 -0.2637 0.3213
vn -0.9142 -0.1910 0.3573
vn 0.9092 -0.1963 0.3672
vn -0.9135 -0.1181 0.3892
vn 0.9086 -0.1212 0.3997
vn -0.9129 -0.0400 0.4061
vn 0.9078 -0.0411 0.4174
vn 0.4051 -0.0896 0.9099
vn 0.4025 -0.2657 0.8760
vn 0.3867 -0.4347 0.8133
vn 0.3575 -0.5925 0.7219
vn 0.3148 -0.7337 0.6021
vn 0.2586 -0.8519 0.4554
vn 0.1900 -0.9395 0.2850
vn 0.1112 -0.9890 0.0974
vn 0.0259 -0.9948 -0.0980
vn -0.0609 -0.9552 -0.2897
vn -0.1441 -0.8727 -0.4665
vn -0.2192 -0.7542 -0.6190
vn -0.2829 -0.6085 -0.7414
vn -0.3337 -0.4444 -0.8314
vn -0.3710 -0.2696 -0.8887
vn -0.3947 -0.0901 -0.9144
vn -0.4051 0.0896 -0.9099
vn -0.4025 0.2657 -0.8760
vn -0.3867 0.4347 -0.8133
vn -0.3575 0.5925 -0.7219
vn -0.3148 0.7337 -0.6021
vn -0.2586 0.8519 -0.4554
vn -0.1900 0.9395 -0.2850
vn -0.1112 0.9890 -0.0974
vn -0.0259 0.9949 0.0980
vn 0.0609 0.9552 0.2897
vn 0.1441 0.8727 0.4665
vn 0.2192 0.7542 0.6190
vn 0.2829 0.6085 0.7414
vn 0.3337 0.4444 0.8314
vn 0.3710 0.2696 0.8887
vn 0.3947 0.0901 0.9144
vn -0.6336 0.0000 -0.7736
vn 0.6171 0.0000 -0.7869
vn 0.6171 -0.1535 -0.7718
vn -0.6335 -0.1508 -0.7589
vn 0.6171 -0.3011 -0.7270
vn -0.6332 -0.2960 -0.7151
vn 0.6171 -0.4371 -0.6543
vn -0.6327 -0.4299 -0.6440
vn 0.6171 -0.5564 -0.5564
vn -0.6321 -0.5477 -0.5482
vn 0.6171 -0.6543 -0.4371
vn -0.6313 -0.6446 -0.4312
vn 0.6171 -0.7270 -0.3011
vn -0.6303 -0.7170 -0.2976
vn 0.6171 -0.7718 -0.1535
vn -0.6293 -0.7621 -0.1522
vn 0.6171 -0.7869 0.0000
vn -0.6281 -0.7781 -0.0006
vn 0.6171 -0.7718 0.1535
vn -0.6269 -0.7642 0.1514
vn 0.6171 -0.7270 0.3011
vn -0.6257 -0.7209 0.2980
vn 0.6171 -0.6543 0.4371
vn -0.6245 -0.6497 0.4334
vn 0.6171 -0.5564 0.5564
vn -0.6234 -0.5532 0.5525
vn 0.6171 -0.4371 0.6543
vn -0.6225 -0.4351 0.6505
vn 0.6171 -0.3011 0.7270
vn -0.6218 -0.2999 0.7234
vn 0.6171 -0.1535 0.7718
vn -0.6214 -0.1530 0.7684
vn 0.6171 0.0000 0.7869
vn -0.6212 0.0000 0.7836
vn 0.6171 0.1535 0.7718
vn -0.6214 0.1530 0.7684
vn 0.6171 0.3011 0.7270
vn -0.6218 0.2999 0.7234
vn 0.6171 0.4371 0.6543
vn -0.6225 0.4351 0.6505
vn 0.6171 0.5564 0.5564
vn -0.6234 0.5532 0.5525
vn 0.6171 0.6543 0.4371
vn -0.6245 0.6497 0.4334
vn 0.6171 0.7270 0.3011
vn -0.6257 0.7209 0.2980
vn 0.6171 0.7718 0.1535
vn -0.6269 0.7642 0.1514
vn 0.6171 0.7869 0.0000
vn -0.6281 0.7781 -0.0006
vn 0.6171 0.7718 -0.1535
vn -0.6293 0.7621 -0.1522
vn 0.6171 0.7270 -0.3011
vn -0.6303 0.7170 -0.2976
vn 0.6171 0.6543 -0.4371
vn -0.6313 0.6446 -0.4312
vn 0.6171 0.5564 -0.5564
vn -0.6321 0.5477 -0.5482
vn 0.6171 0.4371 -0.6543
vn -0.6327 0.4299 -0.6440
vn 0.6171 0.3011 -0.7270
vn -0.6332 0.2960 -0.7151
vn 0.6171 0.1535 -0.7718
vn -0.6335 0.1508 -0.7589
vn -0.9930 -0.0002 0.1182
vn -0.9931 -0.0230 0.1151
vn -0.9932 -0.0445 0.1074
vn -0.9934 -0.0637 0.0954
vn -0.9936 -0.0797 0.0798
vn -0.9938 -0.0919 0.0616
vn -0.9941 -0.0999 0.0416
vn -0.9944 -0.1036 0.0209
vn -0.9947 -0.1032 0.0004
vn -0.9949 -0.0988 -0.0192
vn -0.9951 -0.0909 -0.0372
vn -0.9954 -0.0801 -0.0530
vn -0.9955 -0.0669 -0.0663
vn -0.9957 -0.0519 -0.0769
vn -0.9958 -0.0355 -0.0847
vn -0.9958 -0.0181 -0.0897
vn -0.9958 -0.0001 -0.0917
vn -0.9957 0.0180 -0.0907
vn -0.9956 0.0359 -0.0866
vn -0.9954 0.0532 -0.0793
vn -0.9952 0.0692 -0.0689
vn -0.9950 0.0835 -0.0554
vn -0.9947 0.0952 -0.0391
vn -0.9944 0.1036 -0.0202
vn -0.9941 0.1082 0.0003
vn -0.9938 0.1086 0.0219
vn -0.9936 0.1043 0.0436
vn -0.9933 0.0954 0.0641
vn -0.9932 0.0822 0.0826
vn -0.9930 0.0651 0.0980
vn -0.9930 0.0450 0.1094
vn -0.9930 0.0229 0.1162
vn 0.9950 -0.0197 0.0976
vn 0.9949 -0.0003 0.1006
vn 0.9951 -0.0380 0.0912
vn 0.9951 -0.0547 0.0817
vn 0.9951 -0.0694 0.0693
vn 0.9951 -0.0816 0.0546
vn 0.9951 -0.0910 0.0379
vn 0.9951 -0.0973 0.0196
vn 0.9950 -0.1002 0.0003
vn 0.9948 -0.0995 -0.0194
vn 0.9947 -0.0951 -0.0389
vn 0.9945 -0.0869 -0.0575
vn 0.9944 -0.0752 -0.0745
vn 0.9942 -0.0602 -0.0891
vn 0.9940 -0.0422 -0.1007
vn 0.9938 -0.0220 -0.1085
vn 0.9937 -0.0004 -0.1121
vn 0.9936 0.0218 -0.1111
vn 0.9934 0.0435 -0.1055
vn 0.9934 0.0636 -0.0954
vn 0.9933 0.0812 -0.0813
vn 0.9934 0.0955 -0.0637
vn 0.9934 0.1057 -0.0436
vn 0.9935 0.1115 -0.0219
vn 0.9936 0.1125 0.0004
vn 0.9938 0.1090 0.0221
vn 0.9940 0.1012 0.0424
vn 0.9941 0.0896 0.0605
vn 0.9943 0.0749 0.0757
vn 0.9945 0.0578 0.0875
vn 0.9946 0.0391 0.0956
vn 0.9948 0.0194 0.1000
usemtl None
s off
f 193//1 194//1 68//1 66//1
f 194//2 195//2 70//2 68//2
f 195//3 196//3 72//3 70//3
f 196//4 197//4 74//4 72//4
f 197//5 198//5 76//5 74//5
f 198//6 199//6 78//6 76//6
f 199//7 200//7 80//7 78//7
f 200//8 201//8 82//8 80//8
f 201//9 202//9 84//9 82//9
f 202//10 203//10 86//10 84//10
f 203//11 204//11 88//11 86//11
f 204//12 205//12 90//12 88//12
f 205//13 206//13 92//13 90//13
f 206//14 207//14 94//14 92//14
f 207//15 208//15 96//15 94//15
f 208//16 209//16 98//16 96//16
f 209//17 210//17 100//17 98//17
f 210//18 211//18 102//18 100//18
f 211//19 212//19 104//19 102//19
f 212//20 213//20 106//20 104//20
f 213//21 214//21 108//21 106//21
f 214//22 215//22 110//22 108//22
f 215//23 216//23 112//23 110//23
f 216//24 217//24 114//24 112//24
f 217//25 218//25 116//25 114//25
f 218//26 219//26 118//26 116//26
f 219//27 220//27 120//27 118//27
f 220//28 221//28 122//28 120//28
f 221//29 222//29 124//29 122//29
f 222//30 223//30 126//30 124//30
f 223//31 224//31 128//31 126//31
f 224//32 193//32 66//32 128//32
f 129//33 130//33 67//33 65//33
f 162//34 161//34 66//34 68//34
f 130//35 131//35 69//35 67//35
f 163//36 162//36 68//36 70//36
f 131//37 132//37 71//37 69//37
f 164//38 163//38 70//38 72//38
f 132//39 133//39 73//39 71//39
f 165//40 164//40 72//40 74//40
f 133//41 134//41 75//41 73//41
f 166//42 165//42 74//42 76//42
f 134//43 135//43 77//43 75//43
f 167//44 166//44 76//44 78//44
f 135//45 136//45 79//45 77//45
f 168//46 167//46 78//46 80//46
f 136//47 137//47 81//47 79//47
f 169//48 168//48 80//48 82//48
f 137//49 138//49 83//49 81//49
f 170//50 169//50 82//50 84//50
f 138//51 139//51 85//51 83//51
f 171//52 170//52 84//52 86//52
f 139//53 140//53 87//53 85//53
f 172//54 171//54 86//54 88//54
f 140//55 141//55 89//55 87//55
f 173//56 172//56 88//56 90//56
f 141//57 142//57 91//57 89//57
f 174//58 173//58 90//58 92//58
f 142//59 143//59 93//59 91//59
f 175//60 174//60 92//60 94//60
f 143//61 144//61 95//61 93//61
f 176//62 175//62 94//62 96//62
f 144//63 145//63 97//63 95//63
f 177//64 176//64 96//64 98//64
f 145//65 146//65 99//65 97//65
f 178//66 177//66 98//66 100//66
f 146//67 147//67 101//67 99//67
f 179//68 178//68 100//68 102//68
f 147//69 148//69 103//69 101//69
f 180//70 179//70 102//70 104//70
f 148//71 149//71 105//71 103//71
f 181//72 180//72 104//72 106//72
f 149//73 150//73 107//73 105//73
f 182//74 181//74 106//74 108//74
f 150//75 151//75 109//75 107//75
f 183//76 182//76 108//76 110//76
f 151//77 152//77 111//77 109//77
f 184//78 183//78 110//78 112//78
f 152//79 153//79 113//79 111//79
f 185//80 184//80 112//80 114//80
f 153//81 154//81 115//81 113//81
f 186//82 185//82 114//82 116//82
f 154//83 155//83 117//83 115//83
f 187//84 186//84 116//84 118//84
f 155//85 156//85 119//85 117//85
f 188//86 187//86 118//86 120//86
f 156//87 157//87 121//87 119//87
f 189//88 188//88 120//88 122//88
f 157//89 158//89 123//89 121//89
f 190//90 189//90 122//90 124//90
f 158//91 159//91 125//91 123//91
f 191//92 190//92 124//92 126//92
f 159//93 160//93 127//93 125//93
f 192//94 191//94 126//94 128//94
f 160//95 129//95 65//95 127//95
f 161//96 192//96 128//96 66//96
f 127//97 65//97 193//97 224//97
f 125//98 127//98 224//98 223//98
f 123//99 125//99 223//99 222//99
f 121//100 123//100 222//100 221//100
f 119//101 121//101 221//101 220//101
f 117//102 119//102 220//102 219//102
f 115//103 117//103 219//103 218//103
f 113//104 115//104 218//104 217//104
f 111//105 113//105 217//105 216//105
f 109//106 111//106 216//106 215//106
f 107//107 109//107 215//107 214//107
f 105//108 107//108 214//108 213//108
f 103//109 105//109 213//109 212//109
f 101//110 103//110 212//110 211//110
f 99//111 101//111 211//111 210//111
f 97//112 99//112 210//112 209//112
f 95//113 97//113 209//113 208//113
f 93//114 95//114 208//114 207//114
f 91//115 93//115 207//115 206//115
f 89//116 91//116 206//116 205//116
f 87//117 89//117 205//117 204//117
f 85//118 87//118 204//118 203//118
f 83//119 85//119 203//119 202//119
f 81//120 83//120 202//120 201//120
f 79//121 81//121 201//121 200//121
f 77//122 79//122 200//122 199//122
f 75//123 77//123 199//123 198//123
f 73//124 75//124 198//124 197//124
f 71//125 73//125 197//125 196//125
f 69//126 71//126 196//126 195//126
f 67//127 69//127 195//127 194//127
f 65//128 67//128 194//128 193//128
s 1
f 1//129 2//130 4//131 3//132
f 3//132 4//131 6//133 5//134
f 5//134 6//133 8//135 7//136
f 7//136 8//135 10//137 9//138
f 9//138 10//137 12//139 11//140
f 11//140 12//139 14//141 13//142
f 13//142 14//141 16//143 15//144
f 15//144 16//143 18//145 17//146
f 17//146 18//145 20//147 19//148
f 19//148 20//147 22//149 21//150
f 21//150 22//149 24//151 23//152
f 23//152 24//151 26//153 25//154
f 25//154 26//153 28//155 27//156
f 27//156 28//155 30//157 29//158
f 29//158 30//157 32//159 31//160
f 31//160 32//159 34//161 33//162
f 33//162 34//161 36//163 35//164
f 35//164 36//163 38//165 37//166
f 37//166 38//165 40//167 39//168
f 39//168 40//167 42//169 41//170
f 41//170 42//169 44//171 43//172
f 43//172 44//171 46//173 45//174
f 45//174 46//173 48//175 47//176
f 47//176 48//175 50//177 49//178
f 49//178 50//177 52//179 51//180
f 51//180 52//179 54//181 53//182
f 53//182 54//181 56//183 55//184
f 55//184 56//183 58//185 57//186
f 57//186 58//185 60//187 59//188
f 59//188 60//187 62//189 61//190
f 61//190 62//189 64//191 63//192
f 63//192 64//191 2//130 1//129
f 63//192 1//129 129//193 160//194
f 61//190 63//192 160//194 159//195
f 59//188 61//190 159//195 158//196
f 57//186 59//188 158//196 157//197
f 55//184 57//186 157//197 156//198
f 53//182 55//184 156//198 155//199
f 51//180 53//182 155//199 154//200
f 49//178 51//180 154//200 153//201
f 47//176 49//178 153//201 152//202
f 45//174 47//176 152//202 151//203
f 43//172 45//174 151//203 150//204
f 41//170 43//172 150//204 149//205
f 39//168 41//170 149//205 148//206
f 37//166 39//168 148//206 147//207
f 35//164 37//166 147//207 146//208
f 33//162 35//164 146//208 145//209
f 31//160 33//162 145//209 144//210
f 29//158 31//160 144//210 143//211
f 27//156 29//158 143//211 142//212
f 25//154 27//156 142//212 141//213
f 23//152 25//154 141//213 140//214
f 21//150 23//152 140//214 139//215
f 19//148 21//150 139//215 138//216
f 17//146 19//148 138//216 137//217
f 15//144 17//146 137//217 136//218
f 13//142 15//144 136//218 135//219
f 11//140 13//142 135//219 134//220
f 9//138 11//140 134//220 133//221
f 7//136 9//138 133//221 132//222
f 5//134 7//136 132//222 131//223
f 3//132 5//134 131//223 130//224
f 1//129 3//132 130//224 129//193
f 2//130 64//191 192//225 161//226
f 64//191 62//189 191//227 192//225
f 62//189 60//187 190//228 191//227
f 60//187 58//185 189//229 190//228
f 58//185 56//183 188//230 189//229
f 56//183 54//181 187//231 188//230
f 54//181 52//179 186//232 187//231
f 52//179 50//177 185//233 186//232
f 50//177 48//175 184//234 185//233
f 48//175 46//173 183//235 184//234
f 46//173 44//171 182//236 183//235
f 44//171 42//169 181//237 182//236
f 42//169 40//167 180//238 181//237
f 40//167 38//165 179//239 180//238
f 38//165 36//163 178//240 179//239
f 36//163 34//161 177//241 178//240
f 34//161 32//159 176//242 177//241
f 32//159 30//157 175//243 176//242
f 30//157 28//155 174//244 175//243
f 28//155 26//153 173//245 174//244
f 26//153 24//151 172//246 173//245
f 24//151 22//149 171//247 172//246
f 22//149 20//147 170//248 171//247
f 20//147 18//145 169//249 170//248
f 18//145 16//143 168//250 169//249
f 16//143 14//141 167//251 168//250
f 14//141 12//139 166//252 167//251
f 12//139 10//137 165//253 166//252
f 10//137 8//135 164//254 165//253
f 8//135 6//133 163//255 164//254
f 6//133 4//131 162//256 163//255
f 4//131 2//130 161//226 162//256
