# Blender v2.79 (sub 0) OBJ File: 'bridge.blend'
# www.blender.org
mtllib red.mtl
o Cube.002
v 0.391360 3.723689 -0.111166
v 0.391360 4.888609 -0.111166
v 0.821300 3.242439 -0.214970
v 0.821300 5.268442 -0.214970
v 0.391360 3.723689 0.111166
v 0.391360 4.888609 0.111166
v 0.821300 3.242439 0.214970
v 0.821300 5.268442 0.214970
v -15.295376 3.723689 0.111166
v -15.295376 4.888608 0.111166
v -15.725316 3.242440 0.214970
v -15.725316 5.268442 0.214970
v -15.295376 3.723689 -0.111166
v -15.295376 4.888608 -0.111166
v -15.725316 3.242440 -0.214970
v -15.725316 5.268442 -0.214970
vt 0.333518 0.412609
vt 0.333518 0.604058
vt 0.666482 0.666482
vt 0.666482 0.333518
vt 0.333149 0.333149
vt 0.333149 0.000185
vt 0.000185 0.000185
vt 0.000185 0.333149
vt 0.333149 0.666851
vt 0.333149 0.999815
vt 0.000185 0.937392
vt 0.000185 0.745942
vt 0.666851 0.191634
vt 0.666851 0.000185
vt 0.839035 0.000185
vt 0.839035 0.191634
vt 0.333518 0.000185
vt 0.333518 0.333149
vt 0.666482 0.252759
vt 0.666482 0.080575
vt 0.000185 0.666482
vt 0.000185 0.333518
vt 0.333149 0.413908
vt 0.333149 0.586092
vt 0.333518 0.412609
vt 0.333518 0.604058
vt 0.666482 0.666482
vt 0.666482 0.333518
vt 0.333149 0.333149
vt 0.333149 0.000185
vt 0.000185 0.000185
vt 0.000185 0.333149
vt 0.333149 0.666851
vt 0.333149 0.999815
vt 0.000185 0.937392
vt 0.000185 0.745942
vt 0.666851 0.191634
vt 0.666851 0.000185
vt 0.839035 0.000185
vt 0.839035 0.191634
vt 0.333518 0.000185
vt 0.333518 0.333149
vt 0.666482 0.252759
vt 0.666482 0.080575
vt 0.000185 0.666482
vt 0.000185 0.333518
vt 0.333149 0.413908
vt 0.333149 0.586092
vn -0.2347 0.0000 -0.9721
vn 1.0000 0.0000 0.0000
vn -0.2347 0.0000 0.9721
vn -1.0000 0.0000 0.0000
vn -0.7457 -0.6662 0.0000
vn -0.6621 0.7494 0.0000
vn 0.2347 0.0000 0.9721
vn 0.2347 0.0000 -0.9721
vn 0.7457 -0.6662 0.0000
vn 0.6621 0.7494 0.0000
usemtl Material.001
s off
f 1/1/1 2/2/1 4/3/1 3/4/1
f 3/5/2 4/6/2 8/7/2 7/8/2
f 7/9/3 8/10/3 6/11/3 5/12/3
f 5/13/4 6/14/4 2/15/4 1/16/4
f 3/17/5 7/18/5 5/19/5 1/20/5
f 8/21/6 4/22/6 2/23/6 6/24/6
f 9/25/7 10/26/7 12/27/7 11/28/7
f 11/29/4 12/30/4 16/31/4 15/32/4
f 15/33/8 16/34/8 14/35/8 13/36/8
f 13/37/2 14/38/2 10/39/2 9/40/2
f 11/41/9 15/42/9 13/43/9 9/44/9
f 16/45/10 12/46/10 10/47/10 14/48/10
